<svg width="70" height="84" viewBox="0 0 70 84" fill="none" xmlns="http://www.w3.org/2000/svg">
<path d="M34.6311 1.14403C34.8293 0.927359 35.1707 0.927359 35.3689 1.14404L68.5988 37.4684C68.8923 37.7892 68.6647 38.3058 68.2299 38.3058L52.3744 38.3058C51.5459 38.3058 50.8744 38.9774 50.8744 39.8058L50.8744 83C50.8744 83.2761 50.6505 83.5 50.3744 83.5L19.6256 83.5C19.3495 83.5 19.1256 83.2761 19.1256 83L19.1256 39.8058C19.1256 38.9774 18.454 38.3058 17.6256 38.3058L1.77012 38.3058C1.33531 38.3058 1.10772 37.7892 1.40121 37.4684L34.6311 1.14403Z" stroke="url(#paint0_linear_974_1733)"/>
<defs>
<linearGradient id="paint0_linear_974_1733" x1="35" y1="-2.90801e-08" x2="35" y2="101.348" gradientUnits="userSpaceOnUse">
<stop stop-color="#004AFF"/>
<stop offset="0.685417" stop-color="#004AFF" stop-opacity="0"/>
</linearGradient>
</defs>
</svg>
