<svg width="42" height="43" viewBox="0 0 42 43" fill="none" xmlns="http://www.w3.org/2000/svg">
<path d="M41.7759 21.814C41.7759 33.3514 32.4217 42.702 20.888 42.702C9.34932 42.702 0 33.3514 0 21.814C0 19.119 0.510559 16.5407 1.44051 14.1738C2.02765 13.7946 2.76796 13.4919 3.66509 13.4773C11.9836 13.4773 12.1076 39.4307 17.432 39.5973C21.6003 39.7322 17.7711 21.2694 21.8374 21.2694C24.1531 21.2694 27.4936 33.0293 29.6416 32.5661C31.3739 32.1942 31.2973 22.3003 34.2646 21.3898C35.7161 20.9485 36.9013 22.2431 37.4374 22.9725C37.7838 23.4429 35.9094 13.239 32.9773 13.487C30.4792 13.6985 30.5084 21.3022 28.2339 21.2913C26.5309 21.284 24.9664 17.4876 23.865 13.9903C22.4209 8.04713 21.2648 6.83273 20.4698 6.84002C18.5515 6.85461 16.8776 13.9988 16.2771 18.5391C15.5186 24.2939 16.5421 28.1304 15.4493 28.2422C12.7324 28.4865 15.07 7.1184 10.3729 3.76694C13.4618 1.96175 17.0539 0.929688 20.8892 0.929688C32.423 0.929687 41.7759 10.279 41.7759 21.814Z" fill="white"/>
</svg>
