<svg width="144" height="43" viewBox="0 0 144 43" fill="none" xmlns="http://www.w3.org/2000/svg">
<path d="M41.7759 21.814C41.7759 33.3514 32.4217 42.702 20.888 42.702C9.34932 42.702 0 33.3514 0 21.814C0 19.119 0.510559 16.5407 1.44051 14.1738C2.02765 13.7946 2.76796 13.4919 3.66509 13.4773C11.9836 13.4773 12.1076 39.4307 17.432 39.5973C21.6003 39.7322 17.7711 21.2694 21.8374 21.2694C24.1531 21.2694 27.4936 33.0293 29.6416 32.5661C31.3739 32.1942 31.2973 22.3003 34.2646 21.3898C35.7161 20.9485 36.9013 22.2431 37.4374 22.9725C37.7838 23.4429 35.9094 13.239 32.9773 13.487C30.4792 13.6985 30.5084 21.3022 28.2339 21.2913C26.5309 21.284 24.9664 17.4876 23.865 13.9903C22.4209 8.04713 21.2648 6.83273 20.4698 6.84002C18.5515 6.85461 16.8776 13.9988 16.2771 18.5391C15.5186 24.2939 16.5421 28.1304 15.4493 28.2422C12.7324 28.4865 15.07 7.1184 10.3729 3.76694C13.4618 1.96175 17.0539 0.929688 20.8892 0.929688C32.423 0.929687 41.7759 10.279 41.7759 21.814Z" fill="white"/>
<path d="M61.7612 18.2176V20.9418C61.7612 21.4061 61.4999 21.6663 61.0367 21.6663H59.4431V31.2599C59.4431 31.7243 59.1817 31.9844 58.7185 31.9844H55.8205C55.3561 31.9844 55.096 31.7231 55.096 31.2599V21.6663H53.4999C53.0355 21.6663 52.7754 21.4049 52.7754 20.9418V18.2176C52.7754 17.7532 53.0367 17.4931 53.4999 17.4931H55.0936V13.58C55.0936 13.1156 55.3549 12.8555 55.8181 12.8555H58.7161C59.1805 12.8555 59.4406 13.1168 59.4406 13.58V17.4931H61.0343C61.4999 17.4931 61.7612 17.7544 61.7612 18.2176Z" fill="white"/>
<path d="M76.5441 22.7963V31.2595C76.5441 31.7238 76.2827 31.984 75.8196 31.984H72.9215C72.4572 31.984 72.197 31.7226 72.197 31.2595V23.1732C72.197 21.7242 71.357 21.086 70.2545 21.086C68.9501 21.086 68.1381 21.8105 68.1381 23.5208V31.2595C68.1381 31.7238 67.8767 31.984 67.4136 31.984H64.5155C64.0512 31.984 63.791 31.7226 63.791 31.2595V12.4198C63.791 11.9555 64.0524 11.6953 64.5155 11.6953H67.4136C67.8779 11.6953 68.1381 11.9567 68.1381 12.4198V18.8164C68.8188 17.8087 70.0527 17.0866 71.9065 17.0866C74.6015 17.0866 76.5441 19.1738 76.5441 22.7963Z" fill="white"/>
<path d="M93.7014 24.7395C93.7014 25.1163 93.6722 25.464 93.643 25.8116C93.5847 26.276 93.2953 26.4778 92.8601 26.4778H89.3251H83.1814C83.7078 28.2003 85.0607 28.8835 86.5705 28.8835C87.3826 28.8835 88.1934 28.5942 88.7149 28.159C89.0042 27.9268 89.2364 27.7822 89.6132 27.7822L92.3958 27.753C92.9173 27.753 93.2078 28.1006 92.9756 28.565C91.8451 31.0862 89.4686 32.3906 86.5122 32.3906C81.7008 32.3906 78.6289 29.0573 78.6289 24.7383C78.6289 20.4192 81.8175 17.0859 86.3967 17.0859C90.6295 17.0872 93.7014 20.3632 93.7014 24.7395ZM89.3738 23.175C88.9252 21.5254 87.6476 20.9431 86.3687 20.9431C84.7398 20.9431 83.6117 21.7296 83.1644 23.175H89.3738Z" fill="white"/>
<path d="M114.25 17.4934C114.771 17.4934 115.003 17.8119 114.859 18.3054L110.686 31.377C110.57 31.783 110.25 31.986 109.846 31.986H107.411H107.063C106.657 31.986 106.339 31.783 106.222 31.377L104.683 26.5558L103.15 31.377C103.034 31.783 102.715 31.986 102.31 31.986H100.484H99.5274C99.1214 31.986 98.8029 31.783 98.6862 31.377L94.513 18.3054C94.3683 17.8131 94.6005 17.4934 95.122 17.4934H98.2522C98.6582 17.4934 98.9476 17.6672 99.0643 18.1024L101.319 26.506L102.963 21.1755L102.046 18.3042C101.902 17.8119 102.132 17.4922 102.655 17.4922H104.916C105.322 17.4922 105.612 17.6952 105.728 18.1012L108.185 26.0149L110.309 18.1012C110.424 17.666 110.686 17.4922 111.121 17.4922H114.25V17.4934Z" fill="white"/>
<path d="M128.044 22.8545V31.2605C128.044 31.7249 127.783 31.985 127.32 31.985H124.537C124.073 31.985 123.812 31.7237 123.812 31.2605V30.8472C123.036 31.7565 121.894 32.391 120.073 32.391C117.523 32.391 115.291 30.8837 115.291 27.8689C115.291 24.8542 117.523 23.3468 120.073 23.3468C121.894 23.3468 123.036 23.8611 123.812 24.4518V23.1438C123.812 21.724 123.233 21.0858 122.016 21.0858C121.117 21.0858 120.567 21.4335 120.335 21.9258C120.161 22.3318 120.016 22.5628 119.581 22.5628H116.74C116.276 22.5628 115.986 22.3014 116.016 21.8091C116.392 18.6789 119.059 17.084 122.016 17.084C125.204 17.0864 128.044 18.9414 128.044 22.8545ZM123.812 27.8689C123.812 26.9706 123.03 26.4199 121.61 26.4199C120.276 26.4199 119.639 27.029 119.639 27.8689C119.639 28.7089 120.277 29.318 121.61 29.318C123.03 29.318 123.812 28.7102 123.812 27.8689Z" fill="white"/>
<path d="M143.349 18.3341L138.625 31.4069C138.48 31.7837 138.219 31.9867 137.813 31.9867H135.378H134.683C134.276 31.9867 134.016 31.7837 133.87 31.4069L129.145 18.3341C128.972 17.8126 129.233 17.4941 129.754 17.4941H132.855C133.261 17.4941 133.551 17.6972 133.667 18.1032L136.247 26.4131L138.827 18.1032C138.942 17.6972 139.233 17.4941 139.639 17.4941H142.769C143.29 17.4929 143.522 17.8114 143.349 18.3341Z" fill="white"/>
</svg>
