<svg width="21" height="22" viewBox="0 0 21 22" fill="none" xmlns="http://www.w3.org/2000/svg">
<path d="M10.2305 0.804688L9.29297 1.69531C9.05859 1.92969 9.05859 2.30469 9.29297 2.49219L16.5586 9.75781H0.574219C0.246094 9.75781 0.0117188 10.0391 0.0117188 10.3203V11.6328C0.0117188 11.9609 0.246094 12.1953 0.574219 12.1953H16.5586L9.29297 19.5078C9.05859 19.6953 9.05859 20.0703 9.29297 20.3047L10.2305 21.1953C10.418 21.4297 10.793 21.4297 11.0273 21.1953L20.8242 11.3984C21.0586 11.1641 21.0586 10.8359 20.8242 10.6016L11.0273 0.804688C10.793 0.570312 10.418 0.570312 10.2305 0.804688Z" fill="white"/>
</svg>
