<svg width="18" height="19" viewBox="0 0 18 19" fill="none" xmlns="http://www.w3.org/2000/svg">
<path d="M8.76562 1.03125L7.98438 1.77344C7.78906 1.96875 7.78906 2.28125 7.98438 2.4375L14.0391 8.49219H0.71875C0.445312 8.49219 0.25 8.72656 0.25 8.96094V10.0547C0.25 10.3281 0.445312 10.5234 0.71875 10.5234H14.0391L7.98438 16.6172C7.78906 16.7734 7.78906 17.0859 7.98438 17.2812L8.76562 18.0234C8.92188 18.2188 9.23438 18.2188 9.42969 18.0234L17.5938 9.85938C17.7891 9.66406 17.7891 9.39062 17.5938 9.19531L9.42969 1.03125C9.23438 0.835938 8.92188 0.835938 8.76562 1.03125Z" fill="#0049FA"/>
</svg>
