<svg width="32" height="21" viewBox="0 0 32 21" fill="none" xmlns="http://www.w3.org/2000/svg">
<path d="M12.9375 9.63281C14.6328 8.75781 15.5625 7.5 15.5625 5.58594C15.5625 1.70312 12.6641 0.773438 9.38281 0.773438H0.25V20.1328H9.60156C13.1562 20.1328 16.4375 18.4375 16.4375 14.5C16.4375 12.0938 15.2891 10.2891 12.9375 9.63281ZM4.46094 4.05469H8.50781C10.0391 4.05469 11.4062 4.49219 11.4062 6.29688C11.4062 7.9375 10.3125 8.59375 8.78125 8.59375H4.46094V4.05469ZM9.05469 16.8516H4.46094V11.4922H9.10938C11.0234 11.4922 12.1719 12.3125 12.1719 14.2812C12.1719 16.25 10.75 16.8516 9.05469 16.8516ZM28.6328 3.67188V1.75781H20.8125V3.67188H28.6328ZM31.75 13.3516C31.75 9.19531 29.2891 5.69531 24.9141 5.69531C20.5938 5.69531 17.6953 8.92188 17.6953 13.1328C17.6953 17.5078 20.4844 20.5156 24.9141 20.5156C28.25 20.5156 30.4375 18.9844 31.4766 15.8125H28.0859C27.7031 17.0156 26.1719 17.6172 25.0234 17.6172C22.7812 17.6172 21.5781 16.3047 21.5781 14.0625H31.6953C31.6953 13.8438 31.75 13.5703 31.75 13.3516ZM21.5781 11.6016C21.6875 9.79688 22.9453 8.64844 24.75 8.64844C26.7188 8.64844 27.7031 9.74219 27.8672 11.6016H21.5781Z" fill="#BEBEBE"/>
</svg>
