<svg width="28" height="28" viewBox="0 0 28 28" fill="none" xmlns="http://www.w3.org/2000/svg">
<path d="M13.75 0.859375C6.25781 0.859375 0.1875 6.98438 0.1875 14.4219C0.1875 21.9141 6.25781 27.9844 13.75 27.9844C21.1875 27.9844 27.3125 21.9141 27.3125 14.4219C27.3125 6.98438 21.1875 0.859375 13.75 0.859375ZM22.6641 7.14844C24.3047 9.11719 25.2891 11.6328 25.2891 14.3672C24.9062 14.2578 21.0781 13.4922 17.25 13.9844C16.9219 13.2188 16.6484 12.5625 16.2109 11.6875C20.5312 9.9375 22.4453 7.47656 22.6641 7.14844ZM21.4062 5.78125C21.1875 6.10938 19.4375 8.46094 15.3359 9.99219C13.4219 6.49219 11.3438 3.64844 11.0156 3.21094C14.6797 2.33594 18.5625 3.26562 21.4062 5.78125ZM8.77344 3.97656C9.10156 4.41406 11.1797 7.25781 13.0938 10.7031C7.67969 12.125 2.92188 12.125 2.375 12.0703C3.14062 8.51562 5.54688 5.50781 8.77344 3.97656ZM2.15625 14.4766C2.15625 14.3672 2.15625 14.2578 2.15625 14.0938C2.64844 14.1484 8.28125 14.2031 14.0234 12.4531C14.4062 13.1094 14.6797 13.7656 15.0078 14.4219C10.7969 15.625 6.96875 19.0156 5.10938 22.1875C3.25 20.1641 2.15625 17.4297 2.15625 14.4766ZM6.58594 23.6094C7.84375 21.1484 11.125 17.9219 15.7734 16.3359C17.4141 20.5469 18.0703 24.1016 18.2344 25.1406C14.5156 26.7266 10.0312 26.2891 6.58594 23.6094ZM20.2031 24.0469C20.0938 23.3906 19.4375 20 17.9609 15.7891C21.5703 15.2422 24.7422 16.1719 25.1797 16.2812C24.6328 19.5078 22.7734 22.2969 20.2031 24.0469Z" fill="#BEBEBE"/>
</svg>
