<svg width="25" height="25" viewBox="0 0 25 25" fill="none" xmlns="http://www.w3.org/2000/svg">
<path d="M12.5 6.13281C9 6.13281 6.21094 8.97656 6.21094 12.4219C6.21094 15.9219 9 18.7109 12.5 18.7109C15.9453 18.7109 18.7891 15.9219 18.7891 12.4219C18.7891 8.97656 15.9453 6.13281 12.5 6.13281ZM12.5 16.5234C10.2578 16.5234 8.39844 14.7188 8.39844 12.4219C8.39844 10.1797 10.2031 8.375 12.5 8.375C14.7422 8.375 16.5469 10.1797 16.5469 12.4219C16.5469 14.7188 14.7422 16.5234 12.5 16.5234ZM20.4844 5.91406C20.4844 5.09375 19.8281 4.4375 19.0078 4.4375C18.1875 4.4375 17.5312 5.09375 17.5312 5.91406C17.5312 6.73438 18.1875 7.39062 19.0078 7.39062C19.8281 7.39062 20.4844 6.73438 20.4844 5.91406ZM24.6406 7.39062C24.5312 5.42188 24.0938 3.67188 22.6719 2.25C21.25 0.828125 19.5 0.390625 17.5312 0.28125C15.5078 0.171875 9.4375 0.171875 7.41406 0.28125C5.44531 0.390625 3.75 0.828125 2.27344 2.25C0.851562 3.67188 0.414062 5.42188 0.304688 7.39062C0.195312 9.41406 0.195312 15.4844 0.304688 17.5078C0.414062 19.4766 0.851562 21.1719 2.27344 22.6484C3.75 24.0703 5.44531 24.5078 7.41406 24.6172C9.4375 24.7266 15.5078 24.7266 17.5312 24.6172C19.5 24.5078 21.25 24.0703 22.6719 22.6484C24.0938 21.1719 24.5312 19.4766 24.6406 17.5078C24.75 15.4844 24.75 9.41406 24.6406 7.39062ZM22.0156 19.6406C21.6328 20.7344 20.7578 21.5547 19.7188 21.9922C18.0781 22.6484 14.25 22.4844 12.5 22.4844C10.6953 22.4844 6.86719 22.6484 5.28125 21.9922C4.1875 21.5547 3.36719 20.7344 2.92969 19.6406C2.27344 18.0547 2.4375 14.2266 2.4375 12.4219C2.4375 10.6719 2.27344 6.84375 2.92969 5.20312C3.36719 4.16406 4.1875 3.34375 5.28125 2.90625C6.86719 2.25 10.6953 2.41406 12.5 2.41406C14.25 2.41406 18.0781 2.25 19.7188 2.90625C20.7578 3.28906 21.5781 4.16406 22.0156 5.20312C22.6719 6.84375 22.5078 10.6719 22.5078 12.4219C22.5078 14.2266 22.6719 18.0547 22.0156 19.6406Z" fill="#BEBEBE"/>
</svg>
