<svg width="25" height="25" viewBox="0 0 25 25" fill="none" xmlns="http://www.w3.org/2000/svg">
<path d="M23 0.171875H1.94531C1.01562 0.171875 0.25 0.992188 0.25 1.97656V22.9219C0.25 23.9062 1.01562 24.6719 1.94531 24.6719H23C23.9297 24.6719 24.75 23.9062 24.75 22.9219V1.97656C24.75 0.992188 23.9297 0.171875 23 0.171875ZM7.63281 21.1719H4.02344V9.52344H7.63281V21.1719ZM5.82812 7.88281C4.625 7.88281 3.69531 6.95312 3.69531 5.80469C3.69531 4.65625 4.625 3.67188 5.82812 3.67188C6.97656 3.67188 7.90625 4.65625 7.90625 5.80469C7.90625 6.95312 6.97656 7.88281 5.82812 7.88281ZM21.25 21.1719H17.5859V15.4844C17.5859 14.1719 17.5859 12.4219 15.7266 12.4219C13.8125 12.4219 13.5391 13.8984 13.5391 15.4297V21.1719H9.92969V9.52344H13.375V11.1094H13.4297C13.9219 10.1797 15.125 9.19531 16.875 9.19531C20.5391 9.19531 21.25 11.6562 21.25 14.7734V21.1719Z" fill="#BEBEBE"/>
</svg>
