<svg width="29" height="23" viewBox="0 0 29 23" fill="none" xmlns="http://www.w3.org/2000/svg">
<path d="M25.6016 5.73438C26.6953 4.91406 27.6797 3.92969 28.4453 2.78125C27.4609 3.21875 26.3125 3.54688 25.1641 3.65625C26.3672 2.94531 27.2422 1.85156 27.6797 0.484375C26.5859 1.14062 25.3281 1.63281 24.0703 1.90625C22.9766 0.757812 21.5 0.101562 19.8594 0.101562C16.6875 0.101562 14.1172 2.67188 14.1172 5.84375C14.1172 6.28125 14.1719 6.71875 14.2812 7.15625C9.52344 6.88281 5.25781 4.58594 2.41406 1.14062C1.92188 1.96094 1.64844 2.94531 1.64844 4.03906C1.64844 6.00781 2.63281 7.75781 4.21875 8.79688C3.28906 8.74219 2.35938 8.52344 1.59375 8.08594V8.14062C1.59375 10.9297 3.5625 13.2266 6.1875 13.7734C5.75 13.8828 5.20312 13.9922 4.71094 13.9922C4.32812 13.9922 4 13.9375 3.61719 13.8828C4.32812 16.1797 6.46094 17.8203 8.97656 17.875C7.00781 19.4062 4.54688 20.3359 1.86719 20.3359C1.375 20.3359 0.9375 20.2812 0.5 20.2266C3.01562 21.8672 6.02344 22.7969 9.30469 22.7969C19.8594 22.7969 25.6016 14.1016 25.6016 6.5C25.6016 6.22656 25.6016 6.00781 25.6016 5.73438Z" fill="#BEBEBE"/>
</svg>
