<svg width="329" height="692" viewBox="0 0 329 692" fill="none" xmlns="http://www.w3.org/2000/svg">
<path opacity="0.4" d="M260.03 378.916C260.317 378.584 260.831 378.584 261.118 378.916L275.243 395.229C275.647 395.695 275.316 396.42 274.699 396.42L269.982 396.42C268.79 396.42 267.823 397.387 267.823 398.58L267.823 418.937C267.823 419.335 267.5 419.657 267.103 419.657L254.045 419.657C253.648 419.657 253.325 419.335 253.325 418.937L253.325 398.58C253.325 397.387 252.359 396.42 251.166 396.42L246.449 396.42C245.832 396.42 245.501 395.695 245.905 395.229L260.03 378.916Z" stroke="#0049FA" stroke-width="1.43965"/>
<path opacity="0.4" d="M77.2004 397.597C77.4869 397.274 77.9918 397.274 78.2782 397.597L100.994 423.25C101.405 423.714 101.076 424.447 100.455 424.447L91.1316 424.447C89.939 424.447 88.9722 425.413 88.9722 426.606L88.9722 457.808C88.9722 458.205 88.6499 458.527 88.2523 458.527L67.2263 458.527C66.8287 458.527 66.5065 458.205 66.5065 457.808L66.5065 426.606C66.5065 425.413 65.5396 424.447 64.347 424.447L55.0235 424.447C54.403 424.447 54.0733 423.714 54.4846 423.25L77.2004 397.597Z" stroke="#0049FA" stroke-width="1.43965"/>
<path opacity="0.4" d="M298.907 201.809C299.194 201.485 299.7 201.485 299.986 201.809L325.586 230.784C325.997 231.248 325.667 231.98 325.047 231.98L314.167 231.98C312.974 231.98 312.008 232.947 312.008 234.14L312.008 269.214C312.008 269.612 311.685 269.934 311.288 269.934L287.606 269.934C287.208 269.934 286.886 269.612 286.886 269.214L286.886 234.14C286.886 232.947 285.919 231.98 284.726 231.98L273.847 231.98C273.227 231.98 272.897 231.248 273.307 230.784L298.907 201.809Z" stroke="#0049FA" stroke-width="1.43965"/>
<path opacity="0.4" d="M32.5739 165.809C32.8602 165.486 33.3635 165.486 33.6498 165.809L63.5554 199.447C63.9681 199.911 63.6386 200.645 63.0175 200.645L49.8244 200.645C48.6317 200.645 47.6649 201.612 47.6649 202.804L47.6649 243.301C47.6649 243.698 47.3426 244.02 46.9451 244.02L19.2787 244.02C18.8811 244.02 18.5588 243.698 18.5588 243.301L18.5588 202.804C18.5588 201.612 17.592 200.645 16.3994 200.645L3.20623 200.645C2.5851 200.645 2.25557 199.911 2.66827 199.447L32.5739 165.809Z" stroke="#0049FA" stroke-width="1.43965"/>
<path opacity="0.4" d="M219.733 1.65951C220.018 1.34446 220.513 1.34446 220.799 1.65951L262.179 47.2926C262.599 47.7552 262.27 48.496 261.646 48.496L242.291 48.496C241.098 48.496 240.131 49.4628 240.131 50.6554L240.131 105.094C240.131 105.492 239.809 105.814 239.411 105.814L201.12 105.814C200.723 105.814 200.4 105.492 200.4 105.094L200.4 50.6554C200.4 49.4628 199.434 48.496 198.241 48.496L178.886 48.496C178.261 48.496 177.933 47.7552 178.352 47.2926L219.733 1.65951Z" stroke="#0049FA" stroke-width="1.43965"/>
<path d="M161.857 72.4218C163.006 71.0823 165.078 71.0823 166.227 72.4218L310.874 241.041C312.476 242.908 311.15 245.795 308.689 245.795L239.413 245.795C236.233 245.795 233.654 248.373 233.654 251.554L233.654 686.711C233.654 688.301 232.365 689.59 230.775 689.59L97.3091 689.59C95.7189 689.59 94.4298 688.301 94.4298 686.711L94.4298 251.554C94.4298 248.373 91.8516 245.795 88.6712 245.795L19.3952 245.795C16.9347 245.795 15.6078 242.908 17.2098 241.041L161.857 72.4218Z" fill="url(#paint0_linear_974_1643)" stroke="url(#paint1_linear_974_1643)" stroke-width="2.87929"/>
<defs>
<linearGradient id="paint0_linear_974_1643" x1="164.042" y1="67.6631" x2="164.042" y2="503.876" gradientUnits="userSpaceOnUse">
<stop stop-color="#000044"/>
<stop offset="0.828548" stop-color="#080816"/>
</linearGradient>
<linearGradient id="paint1_linear_974_1643" x1="164.042" y1="67.6631" x2="164.042" y2="547.065" gradientUnits="userSpaceOnUse">
<stop stop-color="#004AFF"/>
<stop offset="0.865776" stop-color="#080816"/>
</linearGradient>
</defs>
</svg>
