<svg width="29" height="32" viewBox="0 0 29 32" fill="none" xmlns="http://www.w3.org/2000/svg">
<path d="M12.334 6.6875C12.334 6.3125 11.959 5.9375 11.584 5.9375H9.08398C8.64648 5.9375 8.33398 6.3125 8.33398 6.6875V9.1875C8.33398 9.625 8.64648 9.9375 9.08398 9.9375H11.584C11.959 9.9375 12.334 9.625 12.334 9.1875V6.6875ZM19.584 5.9375H17.084C16.6465 5.9375 16.334 6.3125 16.334 6.6875V9.1875C16.334 9.625 16.6465 9.9375 17.084 9.9375H19.584C19.959 9.9375 20.334 9.625 20.334 9.1875V6.6875C20.334 6.3125 19.959 5.9375 19.584 5.9375ZM11.584 11.9375H9.08398C8.64648 11.9375 8.33398 12.3125 8.33398 12.6875V15.1875C8.33398 15.625 8.64648 15.9375 9.08398 15.9375H11.584C11.959 15.9375 12.334 15.625 12.334 15.1875V12.6875C12.334 12.3125 11.959 11.9375 11.584 11.9375ZM19.584 11.9375H17.084C16.6465 11.9375 16.334 12.3125 16.334 12.6875V15.1875C16.334 15.625 16.6465 15.9375 17.084 15.9375H19.584C19.959 15.9375 20.334 15.625 20.334 15.1875V12.6875C20.334 12.3125 19.959 11.9375 19.584 11.9375ZM11.584 17.9375H9.08398C8.64648 17.9375 8.33398 18.3125 8.33398 18.6875V21.1875C8.33398 21.625 8.64648 21.9375 9.08398 21.9375H11.584C11.959 21.9375 12.334 21.625 12.334 21.1875V18.6875C12.334 18.3125 11.959 17.9375 11.584 17.9375ZM19.584 17.9375H17.084C16.6465 17.9375 16.334 18.3125 16.334 18.6875V21.1875C16.334 21.625 16.6465 21.9375 17.084 21.9375H19.584C19.959 21.9375 20.334 21.625 20.334 21.1875V18.6875C20.334 18.3125 19.959 17.9375 19.584 17.9375ZM28.334 30.75C28.334 30.375 27.959 30 27.584 30H26.334V1.5C26.334 0.6875 25.6465 0 24.834 0H3.83398C2.95898 0 2.33398 0.6875 2.33398 1.5V30H1.08398C0.646484 30 0.333984 30.375 0.333984 30.75V32H28.334V30.75ZM24.334 30H16.334V24.6875C16.334 24.3125 15.959 23.9375 15.584 23.9375H13.084C12.6465 23.9375 12.334 24.3125 12.334 24.6875V30H4.33398V2H24.334V30Z" fill="white"/>
</svg>
