<svg width="33" height="24" viewBox="0 0 33 24" fill="none" xmlns="http://www.w3.org/2000/svg">
<path d="M29.6665 0H3.6665C1.979 0 0.666504 1.375 0.666504 3V21C0.666504 22.6875 1.979 24 3.6665 24H29.6665C31.2915 24 32.6665 22.6875 32.6665 21V3C32.6665 1.375 31.2915 0 29.6665 0ZM3.6665 2H29.6665C30.1665 2 30.6665 2.5 30.6665 3V5.625C29.2915 6.75 27.2915 8.375 21.229 13.1875C20.1665 14.0625 18.104 16.0625 16.6665 16C15.1665 16.0625 13.104 14.0625 12.0415 13.1875C5.979 8.375 3.979 6.75 2.6665 5.625V3C2.6665 2.5 3.104 2 3.6665 2ZM29.6665 22H3.6665C3.104 22 2.6665 21.5625 2.6665 21V8.1875C4.0415 9.375 6.2915 11.1875 10.7915 14.75C12.104 15.8125 14.354 18.0625 16.6665 18C18.9165 18.0625 21.1665 15.8125 22.479 14.75C26.979 11.1875 29.229 9.375 30.6665 8.1875V21C30.6665 21.5625 30.1665 22 29.6665 22Z" fill="white"/>
</svg>
