<svg width="33" height="33" viewBox="0 0 33 33" fill="none" xmlns="http://www.w3.org/2000/svg">
<path d="M31.4375 2.5625L25.1875 1.0625C24.25 0.875 23.3125 1.3125 22.9375 2.1875L20 9C19.6875 9.8125 19.875 10.75 20.5625 11.25L23.9375 14C21.8125 18.375 18.3125 21.875 13.9375 24L11.1875 20.625C10.6875 19.9375 9.75 19.75 8.9375 20.0625L2.125 23C1.3125 23.375 0.8125 24.3125 1 25.1875L2.5 31.5C2.6875 32.375 3.4375 33 4.375 33C20.125 33 33 20.25 33 4.4375C33 3.5 32.375 2.75 31.4375 2.5625ZM4.4375 31L3 24.8125L9.6875 21.9375L13.4375 26.5C19.875 23.4375 23.375 19.9375 26.4375 13.5L21.875 9.75L24.75 3.0625L30.9375 4.5C30.9375 19.125 19.0625 31 4.4375 31Z" fill="white"/>
</svg>
