<svg width="69" height="84" viewBox="0 0 69 84" fill="none" xmlns="http://www.w3.org/2000/svg">
<path d="M34.1287 1.15821C34.3273 0.938048 34.6727 0.93804 34.8713 1.15821L67.6227 37.471C67.9128 37.7926 67.6846 38.3058 67.2514 38.3058L51.6438 38.3058C50.8153 38.3058 50.1438 38.9774 50.1438 39.8058L50.1438 83C50.1438 83.2761 49.9199 83.5 49.6438 83.5L19.3562 83.5C19.0801 83.5 18.8562 83.2761 18.8562 83L18.8562 39.8058C18.8562 38.9774 18.1847 38.3058 17.3562 38.3058L1.74858 38.3058C1.31544 38.3058 1.08719 37.7926 1.37728 37.471L34.1287 1.15821Z" stroke="url(#paint0_linear_974_1738)"/>
<defs>
<linearGradient id="paint0_linear_974_1738" x1="34.5" y1="-7.22443e-09" x2="34.5" y2="101.348" gradientUnits="userSpaceOnUse">
<stop stop-color="#004AFF"/>
<stop offset="0.685417" stop-color="#004AFF" stop-opacity="0"/>
</linearGradient>
</defs>
</svg>
