<svg width="385" height="143" viewBox="0 0 385 143" fill="none" xmlns="http://www.w3.org/2000/svg">
<path d="M57.1287 1.15821C57.3273 0.938048 57.6727 0.93804 57.8713 1.15821L90.6227 37.471C90.9128 37.7926 90.6846 38.3058 90.2514 38.3058L74.6438 38.3058C73.8153 38.3058 73.1438 38.9774 73.1438 39.8058L73.1438 83C73.1438 83.2761 72.9199 83.5 72.6438 83.5L42.3562 83.5C42.0801 83.5 41.8562 83.2761 41.8562 83L41.8562 39.8058C41.8562 38.9774 41.1847 38.3058 40.3562 38.3058L24.7486 38.3058C24.3154 38.3058 24.0872 37.7926 24.3773 37.471L57.1287 1.15821Z" stroke="url(#paint0_linear_974_1726)"/>
<path d="M37.9728 78H40.3696V58.96H38.4208L33.6944 60.7072V63.1936L37.9728 61.6032V78ZM42.4869 71.4816C42.4869 75.2 45.3765 78.1344 49.1397 78.1344C52.8805 78.1344 55.7477 75.2 55.7477 71.4816C55.7477 67.808 52.8805 64.8736 49.1397 64.8736C49.0053 64.8736 48.8485 64.896 48.7141 64.896L53.1045 58.96H50.3269L43.9205 67.3376C43.0245 68.4576 42.4869 69.9136 42.4869 71.4816ZM49.1621 67.2928C51.5365 67.2928 53.3509 69.1744 53.3509 71.4816C53.3509 73.8336 51.5141 75.7152 49.1397 75.7152C46.7429 75.7152 44.9061 73.8336 44.9061 71.4816C44.9061 69.152 46.7429 67.2928 49.1621 67.2928ZM56.8773 63.9328C56.8773 66.7776 58.9381 68.928 61.6485 68.928C64.3365 68.928 66.4197 66.7776 66.4197 63.9328C66.4197 61.1328 64.3365 58.96 61.6485 58.96C58.9381 58.96 56.8773 61.1328 56.8773 63.9328ZM65.5685 78L72.6021 58.96H70.2053L63.1717 78H65.5685ZM61.6485 61.1328C63.1269 61.1328 64.2693 62.3648 64.2693 63.9328C64.2693 65.5232 63.1269 66.7328 61.6485 66.7328C60.1925 66.7328 59.0277 65.5232 59.0277 63.9328C59.0277 62.3648 60.1925 61.1328 61.6485 61.1328ZM69.3989 73.1392C69.3989 75.984 71.4597 78.1344 74.1701 78.1344C76.8581 78.1344 78.9413 75.984 78.9413 73.1392C78.9413 70.3392 76.8581 68.1664 74.1701 68.1664C71.4597 68.1664 69.3989 70.3392 69.3989 73.1392ZM74.1701 70.3392C75.6485 70.3392 76.7909 71.5712 76.7909 73.1392C76.7909 74.7296 75.6485 75.9392 74.1701 75.9392C72.7141 75.9392 71.5493 74.7296 71.5493 73.1392C71.5493 71.5712 72.7141 70.3392 74.1701 70.3392Z" fill="#080816"/>
<path d="M15.3747 109V95.4H13.9347V109H15.3747ZM23.9538 104.184V109H25.3938V104.184C25.3938 101.224 23.8578 99.288 21.4258 99.288C20.0498 99.288 18.9298 100.184 18.5458 101.416V99.4H17.1058V109H18.5458V104.2C18.5458 102.184 19.6658 100.728 21.1858 100.728C22.8658 100.728 23.9538 102.072 23.9538 104.184ZM31.5147 100.712C32.9707 100.712 34.0748 101.512 34.5547 102.968H36.0747C35.5467 100.648 33.8347 99.272 31.5147 99.272C28.7627 99.272 26.8748 101.224 26.8748 104.168C26.8748 107.128 28.7627 109.08 31.5147 109.08C33.8347 109.08 35.5467 107.688 36.0747 105.368H34.5547C34.1068 106.808 32.9707 107.64 31.5147 107.64C29.6267 107.64 28.3148 106.264 28.3148 104.168C28.3148 102.072 29.6267 100.712 31.5147 100.712ZM43.0108 99.288C41.6668 99.288 39.9068 99.704 39.1068 101.544V99.4H37.6668V109H39.1068V104.344C39.1068 102.04 40.5308 100.696 43.0108 100.728V99.288ZM51.2519 106.056C50.7879 107.032 49.7959 107.72 48.5319 107.72C46.8199 107.72 45.5719 106.52 45.3639 104.696H53.0919C53.1239 104.488 53.1399 104.28 53.1399 104.072C53.1399 101.368 51.1079 99.272 48.5159 99.272C45.8919 99.272 43.8919 101.384 43.8919 104.168C43.8919 107.048 45.8119 109.08 48.5479 109.08C50.4519 109.08 52.1319 107.848 52.7879 106.056H51.2519ZM45.3639 103.624C45.5879 101.864 46.8519 100.632 48.5159 100.632C50.1799 100.632 51.4759 101.896 51.6679 103.624H45.3639ZM62.4759 109H63.9159V99.4H62.4759V101.416C62.0279 100.136 60.5559 99.288 59.0519 99.288C56.2999 99.288 54.4599 101.224 54.4599 104.184C54.4599 107.128 56.2999 109.096 59.0519 109.096C60.5879 109.096 62.0279 108.248 62.4759 106.984V109ZM55.8999 104.184C55.8999 102.104 57.2599 100.728 59.1959 100.728C61.0999 100.728 62.4759 102.136 62.4759 104.2C62.4759 106.28 61.1319 107.656 59.1959 107.656C57.2759 107.656 55.8999 106.264 55.8999 104.184ZM65.4276 106.024C65.4916 107.896 67.2676 109.096 69.0756 109.096C71.0596 109.096 72.5476 107.992 72.5476 106.424C72.5476 104.184 70.6436 103.768 69.1716 103.384C68.5476 103.224 67.2036 102.92 67.2036 101.848C67.2196 101.064 68.0196 100.52 69.0756 100.52C70.1156 100.536 70.9156 101.144 71.0596 102.024H72.3716C72.1636 100.36 70.8836 99.288 69.0756 99.288C67.2196 99.288 65.7636 100.296 65.7636 101.864C65.7636 103.512 67.1236 104.136 68.6916 104.568C70.3556 105 71.1076 105.432 71.1076 106.44C71.1076 107.32 70.2596 107.864 69.1076 107.848C67.8916 107.832 66.8676 107.032 66.8036 106.024H65.4276ZM81.0956 106.056C80.6316 107.032 79.6396 107.72 78.3756 107.72C76.6636 107.72 75.4156 106.52 75.2076 104.696H82.9356C82.9676 104.488 82.9836 104.28 82.9836 104.072C82.9836 101.368 80.9516 99.272 78.3596 99.272C75.7356 99.272 73.7356 101.384 73.7356 104.168C73.7356 107.048 75.6556 109.08 78.3916 109.08C80.2956 109.08 81.9756 107.848 82.6316 106.056H81.0956ZM75.2076 103.624C75.4316 101.864 76.6956 100.632 78.3596 100.632C80.0236 100.632 81.3196 101.896 81.5116 103.624H75.2076ZM88.4782 96.456C88.4782 97 88.8302 97.352 89.3742 97.352C89.9182 97.352 90.2542 97 90.2542 96.456C90.2542 95.928 89.9182 95.576 89.3742 95.576C88.8302 95.576 88.4782 95.928 88.4782 96.456ZM90.0942 109V99.4H88.6542V109H90.0942ZM98.6804 104.184V109H100.12V104.184C100.12 101.224 98.5844 99.288 96.1524 99.288C94.7764 99.288 93.6564 100.184 93.2724 101.416V99.4H91.8324V109H93.2724V104.2C93.2724 102.184 94.3924 100.728 95.9124 100.728C97.5924 100.728 98.6804 102.072 98.6804 104.184ZM32.5331 128.872H38.1971C37.9571 131.784 35.9891 133.624 33.3971 133.624C30.5331 133.624 28.4691 131.48 28.4691 128.2C28.4691 124.92 30.5491 122.76 33.3651 122.76C35.2531 122.76 36.7571 123.656 37.5571 125.208H39.1091C38.1651 122.76 36.0851 121.32 33.3491 121.32C29.7011 121.32 27.0291 124.216 27.0291 128.2C27.0291 132.248 29.7811 135.08 33.3811 135.08C36.9171 135.08 39.6531 132.28 39.6531 128.28C39.6531 128.04 39.6371 127.768 39.6051 127.512H32.5331V128.872ZM46.3702 125.288C45.0262 125.288 43.2662 125.704 42.4662 127.544V125.4H41.0262V135H42.4662V130.344C42.4662 128.04 43.8902 126.696 46.3702 126.728V125.288ZM47.1392 130.184C47.1392 132.968 49.1712 135.096 51.8112 135.096C54.4352 135.096 56.4672 132.968 56.4672 130.184C56.4672 127.416 54.4352 125.288 51.8112 125.288C49.1712 125.288 47.1392 127.416 47.1392 130.184ZM51.8112 126.728C53.6352 126.728 55.0272 128.216 55.0272 130.184C55.0272 132.152 53.6352 133.656 51.8112 133.656C49.9872 133.656 48.5792 132.152 48.5792 130.184C48.5792 128.216 49.9872 126.728 51.8112 126.728ZM61.5692 135L63.8892 127.752L66.1932 135H67.6972L70.7692 125.4H69.2652L66.9452 132.648L64.6412 125.4H63.1372L60.8172 132.648L58.5132 125.4H57.0092L60.0652 135H61.5692ZM73.4839 123.368L73.1319 125.4H71.5639V126.76H73.1319V131.832C73.1319 134.088 74.0119 135 76.1239 135H77.0039V133.576H76.2519C75.0679 133.576 74.5719 133.048 74.5719 131.752V126.76H77.0039V125.4H74.5719V123.368H73.4839ZM85.2269 130.184V135H86.6669V130.184C86.6669 127.224 85.1309 125.288 82.6989 125.288C81.3229 125.288 80.2029 126.184 79.8349 127.416V121.4H78.3949V135H79.8349V130.2C79.8349 128.184 80.9389 126.728 82.4749 126.728C84.1549 126.728 85.2269 128.072 85.2269 130.184Z" fill="#5D5D5D"/>
<path d="M191.631 1.14403C191.829 0.927359 192.171 0.927359 192.369 1.14404L225.599 37.4684C225.892 37.7892 225.665 38.3058 225.23 38.3058L209.374 38.3058C208.546 38.3058 207.874 38.9774 207.874 39.8058L207.874 83C207.874 83.2761 207.651 83.5 207.374 83.5L176.626 83.5C176.349 83.5 176.126 83.2761 176.126 83L176.126 39.8058C176.126 38.9774 175.454 38.3058 174.626 38.3058L158.77 38.3058C158.335 38.3058 158.108 37.7892 158.401 37.4684L191.631 1.14403Z" stroke="url(#paint1_linear_974_1726)"/>
<path d="M167.494 75.5808C167.494 73.5648 168.726 71.9744 171.123 70.7872C172.893 69.9136 177.731 68.256 177.731 63.9776C177.731 60.5952 175.11 58.848 171.728 58.848C168.435 58.848 165.613 60.64 165.546 64.2464H167.965C168.077 62.3424 169.533 61.1552 171.728 61.1552C173.878 61.1552 175.334 62.2752 175.334 63.9552C175.334 65.7024 174.371 66.688 170.63 68.5472C167.606 70.048 165.098 71.8176 165.098 76.0064V78H177.866V75.5808H167.494ZM179.403 68.48C179.403 74.1696 182.494 78.1344 187.198 78.1344C191.902 78.1344 194.993 74.1696 194.993 68.48C194.993 62.7904 191.902 58.848 187.198 58.848C182.494 58.848 179.403 62.7904 179.403 68.48ZM187.198 61.2224C190.491 61.2224 192.597 64.1792 192.597 68.48C192.597 72.8032 190.491 75.76 187.198 75.76C183.905 75.76 181.822 72.8032 181.822 68.48C181.822 64.2016 183.905 61.2224 187.198 61.2224ZM196.381 63.9328C196.381 66.7776 198.442 68.928 201.152 68.928C203.84 68.928 205.924 66.7776 205.924 63.9328C205.924 61.1328 203.84 58.96 201.152 58.96C198.442 58.96 196.381 61.1328 196.381 63.9328ZM205.072 78L212.106 58.96H209.709L202.676 78H205.072ZM201.152 61.1328C202.631 61.1328 203.773 62.3648 203.773 63.9328C203.773 65.5232 202.631 66.7328 201.152 66.7328C199.696 66.7328 198.532 65.5232 198.532 63.9328C198.532 62.3648 199.696 61.1328 201.152 61.1328ZM208.903 73.1392C208.903 75.984 210.964 78.1344 213.674 78.1344C216.362 78.1344 218.445 75.984 218.445 73.1392C218.445 70.3392 216.362 68.1664 213.674 68.1664C210.964 68.1664 208.903 70.3392 208.903 73.1392ZM213.674 70.3392C215.152 70.3392 216.295 71.5712 216.295 73.1392C216.295 74.7296 215.152 75.9392 213.674 75.9392C212.218 75.9392 211.053 74.7296 211.053 73.1392C211.053 71.5712 212.218 70.3392 213.674 70.3392Z" fill="#080816"/>
<path d="M150.375 109V95.4H148.935V109H150.375ZM158.954 104.184V109H160.394V104.184C160.394 101.224 158.858 99.288 156.426 99.288C155.05 99.288 153.93 100.184 153.546 101.416V99.4H152.106V109H153.546V104.2C153.546 102.184 154.666 100.728 156.186 100.728C157.866 100.728 158.954 102.072 158.954 104.184ZM166.515 100.712C167.971 100.712 169.075 101.512 169.555 102.968H171.075C170.547 100.648 168.835 99.272 166.515 99.272C163.763 99.272 161.875 101.224 161.875 104.168C161.875 107.128 163.763 109.08 166.515 109.08C168.835 109.08 170.547 107.688 171.075 105.368H169.555C169.107 106.808 167.971 107.64 166.515 107.64C164.627 107.64 163.315 106.264 163.315 104.168C163.315 102.072 164.627 100.712 166.515 100.712ZM178.011 99.288C176.667 99.288 174.907 99.704 174.107 101.544V99.4H172.667V109H174.107V104.344C174.107 102.04 175.531 100.696 178.011 100.728V99.288ZM186.252 106.056C185.788 107.032 184.796 107.72 183.532 107.72C181.82 107.72 180.572 106.52 180.364 104.696H188.092C188.124 104.488 188.14 104.28 188.14 104.072C188.14 101.368 186.108 99.272 183.516 99.272C180.892 99.272 178.892 101.384 178.892 104.168C178.892 107.048 180.812 109.08 183.548 109.08C185.452 109.08 187.132 107.848 187.788 106.056H186.252ZM180.364 103.624C180.588 101.864 181.852 100.632 183.516 100.632C185.18 100.632 186.476 101.896 186.668 103.624H180.364ZM197.476 109H198.916V99.4H197.476V101.416C197.028 100.136 195.556 99.288 194.052 99.288C191.3 99.288 189.46 101.224 189.46 104.184C189.46 107.128 191.3 109.096 194.052 109.096C195.588 109.096 197.028 108.248 197.476 106.984V109ZM190.9 104.184C190.9 102.104 192.26 100.728 194.196 100.728C196.1 100.728 197.476 102.136 197.476 104.2C197.476 106.28 196.132 107.656 194.196 107.656C192.276 107.656 190.9 106.264 190.9 104.184ZM200.428 106.024C200.492 107.896 202.268 109.096 204.076 109.096C206.06 109.096 207.548 107.992 207.548 106.424C207.548 104.184 205.644 103.768 204.172 103.384C203.548 103.224 202.204 102.92 202.204 101.848C202.22 101.064 203.02 100.52 204.076 100.52C205.116 100.536 205.916 101.144 206.06 102.024H207.372C207.164 100.36 205.884 99.288 204.076 99.288C202.22 99.288 200.764 100.296 200.764 101.864C200.764 103.512 202.124 104.136 203.692 104.568C205.356 105 206.108 105.432 206.108 106.44C206.108 107.32 205.26 107.864 204.108 107.848C202.892 107.832 201.868 107.032 201.804 106.024H200.428ZM216.096 106.056C215.632 107.032 214.64 107.72 213.376 107.72C211.664 107.72 210.416 106.52 210.208 104.696H217.936C217.968 104.488 217.984 104.28 217.984 104.072C217.984 101.368 215.952 99.272 213.36 99.272C210.736 99.272 208.736 101.384 208.736 104.168C208.736 107.048 210.656 109.08 213.392 109.08C215.296 109.08 216.976 107.848 217.632 106.056H216.096ZM210.208 103.624C210.432 101.864 211.696 100.632 213.36 100.632C215.024 100.632 216.32 101.896 216.512 103.624H210.208ZM223.478 96.456C223.478 97 223.83 97.352 224.374 97.352C224.918 97.352 225.254 97 225.254 96.456C225.254 95.928 224.918 95.576 224.374 95.576C223.83 95.576 223.478 95.928 223.478 96.456ZM225.094 109V99.4H223.654V109H225.094ZM233.68 104.184V109H235.12V104.184C235.12 101.224 233.584 99.288 231.152 99.288C229.776 99.288 228.656 100.184 228.272 101.416V99.4H226.832V109H228.272V104.2C228.272 102.184 229.392 100.728 230.912 100.728C232.592 100.728 233.68 102.072 233.68 104.184ZM185.793 126.104H187.345C186.593 123.16 184.417 121.32 181.425 121.32C177.745 121.32 175.297 124.072 175.297 128.2C175.297 132.312 177.761 135.08 181.425 135.08C184.401 135.08 186.689 133.24 187.345 130.296H185.809C185.201 132.312 183.553 133.576 181.409 133.576C178.625 133.576 176.753 131.416 176.753 128.2C176.753 124.968 178.609 122.824 181.393 122.824C183.505 122.824 185.089 124.04 185.793 126.104ZM193.898 135V122.84H198.138V121.4H188.218V122.84H192.458V135H193.898ZM200.69 135V129.944H203.938L207.314 135H209.042L205.49 129.752C207.346 129.24 208.546 127.72 208.546 125.64C208.546 123.016 206.69 121.4 203.906 121.4H199.25V135H200.69ZM203.906 122.84C205.826 122.84 207.106 123.96 207.106 125.64C207.106 127.336 205.842 128.504 204.05 128.504H200.69V122.84H203.906Z" fill="#5D5D5D"/>
<path d="M327.129 1.15821C327.327 0.938048 327.673 0.93804 327.871 1.15821L360.623 37.471C360.913 37.7926 360.685 38.3058 360.251 38.3058L344.644 38.3058C343.815 38.3058 343.144 38.9774 343.144 39.8058L343.144 83C343.144 83.2761 342.92 83.5 342.644 83.5L312.356 83.5C312.08 83.5 311.856 83.2761 311.856 83L311.856 39.8058C311.856 38.9774 311.185 38.3058 310.356 38.3058L294.749 38.3058C294.315 38.3058 294.087 37.7926 294.377 37.471L327.129 1.15821Z" stroke="url(#paint2_linear_974_1726)"/>
<path d="M308.473 78H310.87V58.96H308.921L304.194 60.7072V63.1936L308.473 61.6032V78ZM313.547 68.5472H319.438C321.768 68.5472 323.313 69.936 323.313 72.0864C323.313 74.4608 321.812 75.8272 319.326 75.8272C317.108 75.8272 315.563 74.5056 315.473 72.5344H313.054C313.121 76.2304 316.011 78.1344 319.326 78.1344C323.291 78.1344 325.71 75.8272 325.71 72.0416C325.71 68.5248 323.201 66.2624 319.371 66.2624H316.123L316.481 61.3568H324.433V58.96H314.241L313.547 68.5472ZM327.268 63.9328C327.268 66.7776 329.329 68.928 332.039 68.928C334.727 68.928 336.81 66.7776 336.81 63.9328C336.81 61.1328 334.727 58.96 332.039 58.96C329.329 58.96 327.268 61.1328 327.268 63.9328ZM335.959 78L342.993 58.96H340.596L333.562 78H335.959ZM332.039 61.1328C333.517 61.1328 334.66 62.3648 334.66 63.9328C334.66 65.5232 333.517 66.7328 332.039 66.7328C330.583 66.7328 329.418 65.5232 329.418 63.9328C329.418 62.3648 330.583 61.1328 332.039 61.1328ZM339.789 73.1392C339.789 75.984 341.85 78.1344 344.561 78.1344C347.249 78.1344 349.332 75.984 349.332 73.1392C349.332 70.3392 347.249 68.1664 344.561 68.1664C341.85 68.1664 339.789 70.3392 339.789 73.1392ZM344.561 70.3392C346.039 70.3392 347.181 71.5712 347.181 73.1392C347.181 74.7296 346.039 75.9392 344.561 75.9392C343.105 75.9392 341.94 74.7296 341.94 73.1392C341.94 71.5712 343.105 70.3392 344.561 70.3392Z" fill="#080816"/>
<path d="M287.77 109V103.944H291.018L294.394 109H296.122L292.57 103.752C294.426 103.24 295.626 101.72 295.626 99.64C295.626 97.016 293.77 95.4 290.986 95.4H286.33V109H287.77ZM290.986 96.84C292.906 96.84 294.186 97.96 294.186 99.64C294.186 101.336 292.922 102.504 291.13 102.504H287.77V96.84H290.986ZM304.064 106.056C303.6 107.032 302.608 107.72 301.344 107.72C299.632 107.72 298.384 106.52 298.176 104.696H305.904C305.936 104.488 305.952 104.28 305.952 104.072C305.952 101.368 303.92 99.272 301.328 99.272C298.704 99.272 296.704 101.384 296.704 104.168C296.704 107.048 298.624 109.08 301.36 109.08C303.264 109.08 304.944 107.848 305.6 106.056H304.064ZM298.176 103.624C298.4 101.864 299.664 100.632 301.328 100.632C302.992 100.632 304.288 101.896 304.48 103.624H298.176ZM315.464 109H316.904V95.384H315.464V101.416C315.016 100.136 313.56 99.288 312.04 99.288C309.288 99.288 307.464 101.224 307.464 104.184C307.464 107.128 309.304 109.096 312.04 109.096C313.576 109.096 315.016 108.248 315.464 106.984V109ZM308.904 104.184C308.904 102.104 310.248 100.728 312.184 100.728C314.088 100.728 315.464 102.136 315.464 104.2C315.48 106.28 314.136 107.656 312.2 107.656C310.264 107.656 308.904 106.264 308.904 104.184ZM319.922 104.216V99.4H318.482V104.216C318.482 107.176 320.018 109.112 322.45 109.112C323.826 109.112 324.946 108.216 325.33 106.984V109H326.77V99.4H325.33V104.2C325.33 106.216 324.21 107.672 322.69 107.672C321.01 107.672 319.922 106.328 319.922 104.216ZM332.784 100.712C334.24 100.712 335.344 101.512 335.824 102.968H337.344C336.816 100.648 335.104 99.272 332.784 99.272C330.032 99.272 328.144 101.224 328.144 104.168C328.144 107.128 330.032 109.08 332.784 109.08C335.104 109.08 336.816 107.688 337.344 105.368H335.824C335.376 106.808 334.24 107.64 332.784 107.64C330.896 107.64 329.584 106.264 329.584 104.168C329.584 102.072 330.896 100.712 332.784 100.712ZM340.574 97.368L340.222 99.4H338.654V100.76H340.222V105.832C340.222 108.088 341.102 109 343.214 109H344.094V107.576H343.342C342.158 107.576 341.662 107.048 341.662 105.752V100.76H344.094V99.4H341.662V97.368H340.574ZM345.373 96.456C345.373 97 345.725 97.352 346.269 97.352C346.813 97.352 347.149 97 347.149 96.456C347.149 95.928 346.813 95.576 346.269 95.576C345.725 95.576 345.373 95.928 345.373 96.456ZM346.989 109V99.4H345.549V109H346.989ZM348.487 104.184C348.487 106.968 350.519 109.096 353.159 109.096C355.783 109.096 357.815 106.968 357.815 104.184C357.815 101.416 355.783 99.288 353.159 99.288C350.519 99.288 348.487 101.416 348.487 104.184ZM353.159 100.728C354.983 100.728 356.375 102.216 356.375 104.184C356.375 106.152 354.983 107.656 353.159 107.656C351.335 107.656 349.927 106.152 349.927 104.184C349.927 102.216 351.335 100.728 353.159 100.728ZM366.141 104.184V109H367.581V104.184C367.581 101.224 366.045 99.288 363.613 99.288C362.237 99.288 361.117 100.184 360.733 101.416V99.4H359.293V109H360.733V104.2C360.733 102.184 361.853 100.728 363.373 100.728C365.053 100.728 366.141 102.072 366.141 104.184ZM299.572 122.456C299.572 123 299.924 123.352 300.468 123.352C301.012 123.352 301.348 123 301.348 122.456C301.348 121.928 301.012 121.576 300.468 121.576C299.924 121.576 299.572 121.928 299.572 122.456ZM301.188 135V125.4H299.748V135H301.188ZM309.774 130.184V135H311.214V130.184C311.214 127.224 309.678 125.288 307.246 125.288C305.87 125.288 304.75 126.184 304.366 127.416V125.4H302.926V135H304.366V130.2C304.366 128.184 305.486 126.728 307.006 126.728C308.686 126.728 309.774 128.072 309.774 130.184ZM327.131 126.104H328.683C327.931 123.16 325.755 121.32 322.763 121.32C319.083 121.32 316.635 124.072 316.635 128.2C316.635 132.312 319.099 135.08 322.763 135.08C325.739 135.08 328.027 133.24 328.683 130.296H327.147C326.539 132.312 324.891 133.576 322.747 133.576C319.963 133.576 318.091 131.416 318.091 128.2C318.091 124.968 319.947 122.824 322.731 122.824C324.843 122.824 326.427 124.04 327.131 126.104ZM329.347 135H330.899L332.419 131.272H339.012L340.547 135H342.099L336.499 121.4H334.947L329.347 135ZM332.995 129.88L335.715 123.272L338.435 129.88H332.995ZM352.932 126.104H354.484C353.732 123.16 351.556 121.32 348.564 121.32C344.884 121.32 342.436 124.072 342.436 128.2C342.436 132.312 344.9 135.08 348.564 135.08C351.54 135.08 353.828 133.24 354.484 130.296H352.948C352.34 132.312 350.692 133.576 348.548 133.576C345.764 133.576 343.892 131.416 343.892 128.2C343.892 124.968 345.748 122.824 348.532 122.824C350.644 122.824 352.228 124.04 352.932 126.104Z" fill="#5D5D5D"/>
<defs>
<linearGradient id="paint0_linear_974_1726" x1="57.5" y1="-7.22443e-09" x2="57.5" y2="101.348" gradientUnits="userSpaceOnUse">
<stop stop-color="#004AFF"/>
<stop offset="0.685417" stop-color="#004AFF" stop-opacity="0"/>
</linearGradient>
<linearGradient id="paint1_linear_974_1726" x1="192" y1="-2.90801e-08" x2="192" y2="101.348" gradientUnits="userSpaceOnUse">
<stop stop-color="#004AFF"/>
<stop offset="0.685417" stop-color="#004AFF" stop-opacity="0"/>
</linearGradient>
<linearGradient id="paint2_linear_974_1726" x1="327.5" y1="-7.22443e-09" x2="327.5" y2="101.348" gradientUnits="userSpaceOnUse">
<stop stop-color="#004AFF"/>
<stop offset="0.685417" stop-color="#004AFF" stop-opacity="0"/>
</linearGradient>
</defs>
</svg>
