<svg width="66" height="65" viewBox="0 0 66 65" fill="none" xmlns="http://www.w3.org/2000/svg">
<g opacity="0.4">
<path d="M43.8996 43.8851C38.2627 49.522 31.8704 53.2907 26.1181 54.8489C20.3458 56.4126 15.3605 55.7237 12.3257 52.6889C9.29089 49.654 8.602 44.6688 10.1657 38.8964C11.7239 33.1442 15.4926 26.7519 21.1295 21.1149C26.7664 15.478 33.1587 11.7093 38.911 10.1511C44.6834 8.58744 49.6686 9.27633 52.7034 12.3111C55.7382 15.346 56.4271 20.3312 54.8635 26.1036C53.3053 31.8558 49.5365 38.2481 43.8996 43.8851Z" stroke="#0049FA" stroke-width="1.30968"/>
<path d="M43.8802 21.0943C49.5275 26.7208 53.308 33.1061 54.8769 38.8555C56.4512 44.625 55.7715 49.6115 52.7423 52.6519C49.7131 55.6923 44.7291 56.3904 38.9539 54.8374C33.1987 53.2898 26.7995 49.5329 21.1522 43.9064C15.5049 38.2799 11.7244 31.8946 10.1555 26.1452C8.58121 20.3757 9.26089 15.3892 12.2901 12.3488C15.3193 9.30841 20.3033 8.61032 26.0785 10.1633C31.8337 11.7109 38.2329 15.4678 43.8802 21.0943Z" stroke="#0049FA" stroke-width="1.30968"/>
</g>
</svg>
