<svg width="109" height="73" viewBox="0 0 109 73" fill="none" xmlns="http://www.w3.org/2000/svg">
<path opacity="0.4" d="M52.847 58.1797L52.847 58.1796L43.8851 4.46471C43.5723 2.58878 45.0419 0.890708 46.9432 0.931068L62.8856 1.26933C64.6918 1.3078 66.0647 2.90558 65.8306 4.69699L58.8501 58.0736C58.7531 58.815 58.3858 59.4946 57.8186 59.9819C57.2514 60.4692 56.5243 60.73 55.7767 60.7142L55.7764 60.7142C55.0693 60.6994 54.3895 60.4381 53.8546 59.9753C53.3197 59.5125 52.9633 58.8774 52.847 58.1797ZM83.0317 71.4576L83.0316 71.4576C82.5447 71.244 82.1477 70.867 81.9091 70.3919C81.6706 69.9167 81.6054 69.3732 81.725 68.8551L91.4703 26.6335L91.4703 26.6334C91.7916 25.2406 93.3001 24.4835 94.609 25.0576L106.229 30.1547L106.229 30.1548C106.522 30.2835 106.786 30.4725 107.001 30.7097C107.217 30.9468 107.38 31.2268 107.48 31.5312C107.58 31.8356 107.615 32.1577 107.582 32.4765C107.549 32.7953 107.45 33.1036 107.29 33.3813L107.29 33.3813L85.9249 70.5062L85.9248 70.5064C85.6446 70.9936 85.1943 71.3602 84.6604 71.5358C84.1264 71.7114 83.5464 71.6835 83.0317 71.4576ZM27.1946 71.3293L27.1945 71.3294C26.6993 71.5226 26.1521 71.5369 25.6476 71.3696C25.143 71.2024 24.7127 70.8641 24.431 70.4133L24.431 70.4132L1.46684 33.6669L1.46676 33.6667C0.709005 32.4548 1.24027 30.8526 2.57186 30.333L14.3919 25.7211C14.6905 25.6047 15.0102 25.5525 15.3303 25.5678L15.3617 24.9137L15.3303 25.5678C15.6504 25.5832 15.9637 25.6658 16.2498 25.8103C16.5358 25.9549 16.7882 26.158 16.9905 26.4066C17.1928 26.6551 17.3405 26.9435 17.4239 27.2529L28.5679 68.6111L28.5679 68.6111C28.7141 69.1538 28.6548 69.7314 28.4014 70.233C28.148 70.7347 27.7182 71.1251 27.1946 71.3293Z" stroke="#0049FA" stroke-width="1.30968"/>
</svg>
