<svg width="25" height="34" viewBox="0 0 25 34" fill="none" xmlns="http://www.w3.org/2000/svg">
<path opacity="0.4" d="M12.1208 1.20827C12.3203 0.976146 12.6797 0.976146 12.8792 1.20827L24.2011 14.3812C24.4798 14.7054 24.2494 15.2071 23.8219 15.2071L19.7269 15.2071C18.8984 15.2071 18.2269 15.8787 18.2269 16.7071L18.2269 33C18.2269 33.2761 18.003 33.5 17.7269 33.5L7.27312 33.5C6.99698 33.5 6.77312 33.2761 6.77312 33L6.77312 16.7071C6.77312 15.8787 6.10155 15.2071 5.27312 15.2071L1.17808 15.2071C0.750592 15.2071 0.520247 14.7054 0.798895 14.3812L12.1208 1.20827Z" stroke="#0049FA"/>
</svg>
