<svg width="49" height="63" viewBox="0 0 49 63" fill="none" xmlns="http://www.w3.org/2000/svg">
<path opacity="0.4" d="M24.1239 1.18796C24.3231 0.960631 24.6769 0.960627 24.8761 1.18796L48.1704 27.7749C48.4536 28.0981 48.2241 28.6044 47.7943 28.6044L37.2619 28.6044C36.4335 28.6044 35.7619 29.276 35.7619 30.1044L35.7619 62C35.7619 62.2761 35.538 62.5 35.2619 62.5L13.7381 62.5C13.462 62.5 13.2381 62.2761 13.2381 62L13.2381 30.1044C13.2381 29.276 12.5665 28.6044 11.7381 28.6044L1.20569 28.6044C0.775951 28.6044 0.546419 28.0981 0.829612 27.7749L24.1239 1.18796Z" stroke="#0049FA"/>
</svg>
