<svg width="310" height="250" viewBox="0 0 310 250" fill="none" xmlns="http://www.w3.org/2000/svg">
<path fill-rule="evenodd" clip-rule="evenodd" d="M253.868 134.859C253.881 134.865 253.896 134.859 253.902 134.846C253.909 134.831 253.929 134.826 253.942 134.837C256.034 136.588 257.969 138.523 259.72 140.615C259.731 140.628 259.726 140.648 259.711 140.655C259.698 140.661 259.692 140.676 259.698 140.689C260.005 141.414 259.672 142.311 258.954 142.754C255.501 144.886 253.2 148.705 253.2 153.061C253.2 159.747 258.62 165.167 265.306 165.167C266.286 165.167 267.24 165.05 268.153 164.83C268.974 164.632 269.847 165.024 270.144 165.754C270.149 165.766 270.164 165.773 270.177 165.768C270.193 165.762 270.21 165.773 270.211 165.789C270.342 167.198 270.408 168.625 270.408 170.067C270.408 172.074 270.279 174.051 270.03 175.99C270.028 176 270.017 176.007 270.007 176.003C270.002 176.002 269.997 176.002 269.993 176.004C269.989 176.006 269.987 176.009 269.985 176.013C269.701 176.759 268.83 177.16 268.006 176.972C267.137 176.775 266.234 176.67 265.306 176.67C258.62 176.67 253.2 182.09 253.2 188.776C253.2 192.774 255.138 196.319 258.126 198.523C258.805 199.024 259.067 199.945 258.69 200.647C258.685 200.655 258.688 200.665 258.697 200.67C258.706 200.675 258.708 200.688 258.701 200.696C258.636 200.769 258.57 200.841 258.505 200.914C258.498 200.921 258.491 200.929 258.484 200.937C258.477 200.944 258.47 200.952 258.463 200.959C256.934 202.64 255.281 204.208 253.52 205.646C253.511 205.654 253.501 205.662 253.492 205.67C253.482 205.678 253.472 205.685 253.463 205.693C253.413 205.734 253.363 205.774 253.312 205.815C253.31 205.817 253.307 205.817 253.304 205.816C253.302 205.816 253.301 205.814 253.3 205.813C253.297 205.809 253.292 205.807 253.288 205.81C252.584 206.21 251.66 205.954 251.151 205.282C248.941 202.364 245.439 200.48 241.496 200.48C234.81 200.48 229.391 205.9 229.391 212.585C229.391 213.049 229.417 213.506 229.467 213.956C229.562 214.795 229.072 215.618 228.285 215.813C228.28 215.814 228.278 215.818 228.279 215.822C228.28 215.827 228.276 215.832 228.272 215.832C228.213 215.837 228.154 215.842 228.095 215.846C228.078 215.848 228.061 215.85 228.044 215.851C228.027 215.852 228.01 215.853 227.994 215.854C226.837 215.941 225.669 215.986 224.49 215.986C222.718 215.986 220.97 215.885 219.25 215.69C219.233 215.689 219.215 215.687 219.198 215.685C219.18 215.683 219.163 215.681 219.145 215.678L219.041 215.666C219.04 215.666 219.039 215.665 219.038 215.663C219.038 215.663 219.038 215.662 219.038 215.661L219.035 215.657C218.236 215.474 217.741 214.655 217.825 213.816C217.866 213.411 217.887 213.001 217.887 212.585C217.887 205.9 212.467 200.48 205.782 200.48C202.187 200.48 198.957 202.047 196.74 204.536C196.18 205.164 195.241 205.35 194.566 204.887C194.565 204.886 194.562 204.886 194.561 204.888C194.56 204.89 194.557 204.89 194.556 204.889L194.474 204.819C194.461 204.807 194.447 204.796 194.434 204.784C194.426 204.778 194.418 204.771 194.411 204.764C194.405 204.759 194.4 204.754 194.394 204.749C192.76 203.33 191.227 201.797 189.807 200.162C189.796 200.15 189.784 200.137 189.773 200.124C189.768 200.118 189.763 200.112 189.757 200.106C189.752 200.098 189.746 200.091 189.74 200.084L189.668 200.001C189.667 200 189.667 199.997 189.669 199.996C189.671 199.995 189.671 199.992 189.67 199.99C189.208 199.316 189.393 198.377 190.022 197.817C192.51 195.6 194.078 192.371 194.078 188.776C194.078 182.09 188.658 176.67 181.972 176.67C181.557 176.67 181.146 176.691 180.742 176.732C179.902 176.817 179.083 176.321 178.9 175.522C178.9 175.52 178.898 175.518 178.896 175.519C178.894 175.519 178.891 175.518 178.891 175.516L178.877 175.398C178.876 175.385 178.874 175.373 178.873 175.36C178.871 175.347 178.87 175.334 178.869 175.322C178.672 173.597 178.571 171.844 178.571 170.067C178.571 168.882 178.616 167.707 178.704 166.544C178.705 166.534 178.706 166.524 178.706 166.513C178.707 166.503 178.708 166.493 178.709 166.482C178.714 166.417 178.719 166.351 178.725 166.286C178.725 166.281 178.73 166.277 178.735 166.278C178.739 166.279 178.744 166.277 178.745 166.272C178.939 165.486 179.762 164.995 180.602 165.09C181.052 165.141 181.509 165.167 181.972 165.167C188.658 165.167 194.078 159.747 194.078 153.061C194.078 149.119 192.193 145.617 189.276 143.406C188.603 142.897 188.348 141.973 188.748 141.269C188.75 141.265 188.749 141.26 188.745 141.257C188.74 141.255 188.739 141.249 188.742 141.244C190.301 139.313 192.013 137.511 193.861 135.856C193.869 135.849 193.882 135.851 193.887 135.861C193.892 135.869 193.903 135.872 193.911 135.868C194.613 135.491 195.533 135.752 196.034 136.431C198.238 139.419 201.784 141.357 205.782 141.357C212.467 141.357 217.887 135.937 217.887 129.252C217.887 128.324 217.783 127.42 217.585 126.552C217.397 125.727 217.798 124.857 218.543 124.573C218.552 124.569 218.557 124.559 218.554 124.55C218.55 124.54 218.557 124.529 218.568 124.527C220.506 124.278 222.483 124.149 224.49 124.149C225.932 124.149 227.359 124.215 228.767 124.346C228.784 124.347 228.795 124.364 228.789 124.38C228.784 124.393 228.79 124.408 228.803 124.413C229.533 124.711 229.925 125.583 229.727 126.404C229.507 127.318 229.391 128.271 229.391 129.252C229.391 135.937 234.81 141.357 241.496 141.357C245.853 141.357 249.671 139.056 251.804 135.603C252.247 134.885 253.143 134.553 253.868 134.859ZM244.897 170.067C244.897 158.796 235.76 149.659 224.489 149.659C213.218 149.659 204.081 158.796 204.081 170.067C204.081 181.338 213.218 190.475 224.489 190.475C235.76 190.475 244.897 181.338 244.897 170.067Z" fill="url(#paint0_linear_1433_540)"/>
<mask id="path-2-inside-1_1433_540" fill="white">
<path fill-rule="evenodd" clip-rule="evenodd" d="M251.804 135.604C252.247 134.886 253.143 134.553 253.868 134.86C253.881 134.866 253.896 134.86 253.902 134.847C253.909 134.831 253.929 134.827 253.942 134.838C256.034 136.589 257.969 138.523 259.72 140.616C259.731 140.629 259.726 140.649 259.711 140.656C259.698 140.662 259.692 140.677 259.698 140.69C260.005 141.415 259.672 142.311 258.954 142.755C255.501 144.887 253.2 148.706 253.2 153.062C253.2 159.748 258.62 165.168 265.306 165.168C266.286 165.168 267.24 165.051 268.153 164.831C268.974 164.633 269.846 165.025 270.144 165.754C270.149 165.767 270.164 165.774 270.177 165.769C270.193 165.763 270.21 165.773 270.211 165.79C270.342 167.199 270.408 168.626 270.408 170.068C270.408 172.075 270.279 174.052 270.03 175.99C270.028 176.001 270.017 176.008 270.007 176.004C269.998 176.001 269.988 176.005 269.985 176.014C269.701 176.76 268.83 177.161 268.006 176.973C267.137 176.775 266.234 176.671 265.306 176.671C258.62 176.671 253.2 182.091 253.2 188.776C253.2 192.774 255.138 196.32 258.126 198.524C258.805 199.025 259.067 199.946 258.69 200.647C258.685 200.656 258.688 200.666 258.697 200.671C258.706 200.676 258.708 200.689 258.701 200.697C258.636 200.769 258.571 200.842 258.505 200.914C258.498 200.922 258.491 200.93 258.484 200.937C258.477 200.945 258.47 200.952 258.463 200.96C256.934 202.641 255.281 204.208 253.52 205.647C253.511 205.655 253.501 205.663 253.492 205.671C253.482 205.679 253.472 205.686 253.463 205.694C253.438 205.714 253.413 205.734 253.388 205.755C253.363 205.775 253.337 205.795 253.312 205.816C253.308 205.819 253.302 205.818 253.3 205.813C253.297 205.809 253.292 205.808 253.288 205.81C252.584 206.21 251.66 205.955 251.151 205.283C248.941 202.365 245.439 200.48 241.496 200.48C234.81 200.48 229.391 205.9 229.391 212.586C229.391 213.049 229.417 213.507 229.467 213.956C229.562 214.796 229.072 215.619 228.285 215.813C228.28 215.814 228.278 215.819 228.279 215.823C228.28 215.828 228.276 215.832 228.272 215.833C228.213 215.838 228.154 215.842 228.095 215.847C228.078 215.849 228.061 215.85 228.044 215.852C228.027 215.853 228.01 215.854 227.994 215.855C226.837 215.942 225.669 215.986 224.49 215.986C222.718 215.986 220.97 215.886 219.25 215.691C219.233 215.689 219.215 215.688 219.198 215.686C219.18 215.684 219.163 215.681 219.145 215.679L219.041 215.667C219.039 215.666 219.038 215.664 219.038 215.662C219.039 215.66 219.037 215.658 219.035 215.658C218.236 215.475 217.741 214.656 217.825 213.817C217.866 213.412 217.887 213.001 217.887 212.586C217.887 205.9 212.467 200.48 205.782 200.48C202.187 200.48 198.957 202.048 196.74 204.536C196.18 205.165 195.241 205.351 194.566 204.888C194.565 204.887 194.562 204.887 194.561 204.889C194.56 204.891 194.557 204.891 194.556 204.889L194.474 204.819C194.461 204.808 194.447 204.797 194.434 204.785C194.426 204.778 194.418 204.772 194.411 204.765C194.405 204.76 194.4 204.755 194.394 204.75C192.76 203.33 191.227 201.797 189.807 200.163C189.796 200.15 189.784 200.138 189.773 200.125C189.768 200.118 189.763 200.112 189.757 200.106C189.752 200.099 189.746 200.092 189.74 200.085L189.668 200.002C189.667 200 189.667 199.998 189.669 199.996C189.671 199.995 189.671 199.993 189.67 199.991C189.208 199.316 189.393 198.378 190.022 197.818C192.51 195.601 194.078 192.372 194.078 188.776C194.078 182.091 188.658 176.671 181.972 176.671C181.557 176.671 181.146 176.692 180.742 176.733C179.902 176.818 179.083 176.322 178.9 175.522C178.9 175.52 178.898 175.519 178.896 175.519C178.894 175.52 178.891 175.518 178.891 175.516L178.877 175.399C178.876 175.386 178.874 175.373 178.873 175.361C178.871 175.348 178.87 175.335 178.869 175.323C178.672 173.598 178.571 171.845 178.571 170.068C178.571 168.883 178.616 167.708 178.704 166.545C178.705 166.535 178.706 166.524 178.706 166.514C178.707 166.504 178.708 166.493 178.709 166.483C178.714 166.418 178.719 166.352 178.725 166.286C178.725 166.281 178.73 166.278 178.735 166.279C178.739 166.28 178.744 166.277 178.745 166.273C178.939 165.486 179.762 164.996 180.602 165.091C181.052 165.141 181.509 165.168 181.972 165.168C188.658 165.168 194.078 159.748 194.078 153.062C194.078 149.12 192.193 145.617 189.276 143.407C188.603 142.898 188.348 141.974 188.748 141.27C188.75 141.266 188.749 141.261 188.745 141.258C188.74 141.256 188.739 141.249 188.742 141.245C190.301 139.314 192.014 137.512 193.861 135.857C193.869 135.85 193.882 135.852 193.887 135.861C193.892 135.87 193.903 135.873 193.911 135.868C194.613 135.491 195.533 135.753 196.034 136.432C198.238 139.42 201.784 141.358 205.782 141.358C212.467 141.358 217.887 135.938 217.887 129.253C217.887 128.324 217.783 127.421 217.585 126.553C217.397 125.728 217.798 124.858 218.543 124.573C218.552 124.57 218.557 124.56 218.554 124.551C218.55 124.541 218.557 124.529 218.568 124.528C220.506 124.278 222.483 124.15 224.49 124.15C225.932 124.15 227.359 124.216 228.768 124.346C228.784 124.348 228.795 124.365 228.789 124.381C228.784 124.394 228.791 124.409 228.804 124.414C229.533 124.711 229.925 125.584 229.727 126.405C229.507 127.318 229.391 128.272 229.391 129.253C229.391 135.938 234.81 141.358 241.496 141.358C245.853 141.358 249.671 139.057 251.804 135.604ZM241.496 144.358C245.716 144.358 249.532 142.628 252.273 139.837C252.974 139.124 254.13 139.013 254.838 139.72C255.545 140.428 255.435 141.584 254.721 142.286C251.931 145.026 250.2 148.842 250.2 153.062C250.2 161.405 256.963 168.168 265.306 168.168C265.313 168.168 265.32 168.168 265.327 168.168C266.423 168.166 267.408 168.972 267.408 170.068C267.408 170.665 267.396 171.259 267.372 171.851C267.328 172.912 266.368 173.671 265.306 173.671C256.963 173.671 250.2 180.434 250.2 188.776C250.2 192.595 251.617 196.083 253.954 198.742C254.604 199.482 254.653 200.615 253.936 201.291C253.251 201.938 252.178 201.864 251.47 201.242C248.81 198.9 245.319 197.48 241.496 197.48C233.154 197.48 226.391 204.243 226.391 212.586C226.391 212.785 226.235 212.952 226.036 212.959C225.523 212.977 225.007 212.986 224.49 212.986C223.361 212.986 222.242 212.943 221.136 212.857C220.995 212.846 220.887 212.727 220.887 212.586C220.887 204.243 214.124 197.48 205.782 197.48C202.382 197.48 199.244 198.604 196.72 200.499C195.939 201.086 194.833 201.107 194.142 200.416C193.451 199.725 193.472 198.619 194.059 197.838C195.955 195.314 197.078 192.176 197.078 188.776C197.078 180.434 190.315 173.671 181.972 173.671C181.831 173.671 181.711 173.563 181.7 173.422C181.615 172.315 181.571 171.197 181.571 170.068C181.571 169.551 181.58 169.035 181.599 168.523C181.606 168.323 181.773 168.168 181.972 168.168C190.315 168.168 197.078 161.405 197.078 153.062C197.078 149.239 195.658 145.748 193.316 143.087C192.693 142.38 192.619 141.307 193.267 140.621C193.942 139.905 195.076 139.954 195.815 140.604C198.475 142.941 201.963 144.358 205.782 144.358C214.124 144.358 220.887 137.595 220.887 129.253C220.887 128.19 221.646 127.229 222.708 127.186C223.299 127.162 223.893 127.15 224.49 127.15C225.586 127.15 226.392 128.135 226.391 129.231C226.391 129.238 226.391 129.246 226.391 129.253C226.391 137.595 233.154 144.358 241.496 144.358ZM224.489 188.976C214.047 188.976 205.581 180.51 205.581 170.068C205.581 159.625 214.047 151.16 224.489 151.16C234.932 151.16 243.397 159.625 243.397 170.068C243.397 180.51 234.932 188.976 224.489 188.976ZM202.581 170.068C202.581 182.167 212.39 191.976 224.489 191.976C236.589 191.976 246.397 182.167 246.397 170.068C246.397 157.968 236.589 148.16 224.489 148.16C212.39 148.16 202.581 157.968 202.581 170.068Z"/>
</mask>
<path fill-rule="evenodd" clip-rule="evenodd" d="M251.804 135.604C252.247 134.886 253.143 134.553 253.868 134.86C253.881 134.866 253.896 134.86 253.902 134.847C253.909 134.831 253.929 134.827 253.942 134.838C256.034 136.589 257.969 138.523 259.72 140.616C259.731 140.629 259.726 140.649 259.711 140.656C259.698 140.662 259.692 140.677 259.698 140.69C260.005 141.415 259.672 142.311 258.954 142.755C255.501 144.887 253.2 148.706 253.2 153.062C253.2 159.748 258.62 165.168 265.306 165.168C266.286 165.168 267.24 165.051 268.153 164.831C268.974 164.633 269.846 165.025 270.144 165.754C270.149 165.767 270.164 165.774 270.177 165.769C270.193 165.763 270.21 165.773 270.211 165.79C270.342 167.199 270.408 168.626 270.408 170.068C270.408 172.075 270.279 174.052 270.03 175.99C270.028 176.001 270.017 176.008 270.007 176.004C269.998 176.001 269.988 176.005 269.985 176.014C269.701 176.76 268.83 177.161 268.006 176.973C267.137 176.775 266.234 176.671 265.306 176.671C258.62 176.671 253.2 182.091 253.2 188.776C253.2 192.774 255.138 196.32 258.126 198.524C258.805 199.025 259.067 199.946 258.69 200.647C258.685 200.656 258.688 200.666 258.697 200.671C258.706 200.676 258.708 200.689 258.701 200.697C258.636 200.769 258.571 200.842 258.505 200.914C258.498 200.922 258.491 200.93 258.484 200.937C258.477 200.945 258.47 200.952 258.463 200.96C256.934 202.641 255.281 204.208 253.52 205.647C253.511 205.655 253.501 205.663 253.492 205.671C253.482 205.679 253.472 205.686 253.463 205.694C253.438 205.714 253.413 205.734 253.388 205.755C253.363 205.775 253.337 205.795 253.312 205.816C253.308 205.819 253.302 205.818 253.3 205.813C253.297 205.809 253.292 205.808 253.288 205.81C252.584 206.21 251.66 205.955 251.151 205.283C248.941 202.365 245.439 200.48 241.496 200.48C234.81 200.48 229.391 205.9 229.391 212.586C229.391 213.049 229.417 213.507 229.467 213.956C229.562 214.796 229.072 215.619 228.285 215.813C228.28 215.814 228.278 215.819 228.279 215.823C228.28 215.828 228.276 215.832 228.272 215.833C228.213 215.838 228.154 215.842 228.095 215.847C228.078 215.849 228.061 215.85 228.044 215.852C228.027 215.853 228.01 215.854 227.994 215.855C226.837 215.942 225.669 215.986 224.49 215.986C222.718 215.986 220.97 215.886 219.25 215.691C219.233 215.689 219.215 215.688 219.198 215.686C219.18 215.684 219.163 215.681 219.145 215.679L219.041 215.667C219.039 215.666 219.038 215.664 219.038 215.662C219.039 215.66 219.037 215.658 219.035 215.658C218.236 215.475 217.741 214.656 217.825 213.817C217.866 213.412 217.887 213.001 217.887 212.586C217.887 205.9 212.467 200.48 205.782 200.48C202.187 200.48 198.957 202.048 196.74 204.536C196.18 205.165 195.241 205.351 194.566 204.888C194.565 204.887 194.562 204.887 194.561 204.889C194.56 204.891 194.557 204.891 194.556 204.889L194.474 204.819C194.461 204.808 194.447 204.797 194.434 204.785C194.426 204.778 194.418 204.772 194.411 204.765C194.405 204.76 194.4 204.755 194.394 204.75C192.76 203.33 191.227 201.797 189.807 200.163C189.796 200.15 189.784 200.138 189.773 200.125C189.768 200.118 189.763 200.112 189.757 200.106C189.752 200.099 189.746 200.092 189.74 200.085L189.668 200.002C189.667 200 189.667 199.998 189.669 199.996C189.671 199.995 189.671 199.993 189.67 199.991C189.208 199.316 189.393 198.378 190.022 197.818C192.51 195.601 194.078 192.372 194.078 188.776C194.078 182.091 188.658 176.671 181.972 176.671C181.557 176.671 181.146 176.692 180.742 176.733C179.902 176.818 179.083 176.322 178.9 175.522C178.9 175.52 178.898 175.519 178.896 175.519C178.894 175.52 178.891 175.518 178.891 175.516L178.877 175.399C178.876 175.386 178.874 175.373 178.873 175.361C178.871 175.348 178.87 175.335 178.869 175.323C178.672 173.598 178.571 171.845 178.571 170.068C178.571 168.883 178.616 167.708 178.704 166.545C178.705 166.535 178.706 166.524 178.706 166.514C178.707 166.504 178.708 166.493 178.709 166.483C178.714 166.418 178.719 166.352 178.725 166.286C178.725 166.281 178.73 166.278 178.735 166.279C178.739 166.28 178.744 166.277 178.745 166.273C178.939 165.486 179.762 164.996 180.602 165.091C181.052 165.141 181.509 165.168 181.972 165.168C188.658 165.168 194.078 159.748 194.078 153.062C194.078 149.12 192.193 145.617 189.276 143.407C188.603 142.898 188.348 141.974 188.748 141.27C188.75 141.266 188.749 141.261 188.745 141.258C188.74 141.256 188.739 141.249 188.742 141.245C190.301 139.314 192.014 137.512 193.861 135.857C193.869 135.85 193.882 135.852 193.887 135.861C193.892 135.87 193.903 135.873 193.911 135.868C194.613 135.491 195.533 135.753 196.034 136.432C198.238 139.42 201.784 141.358 205.782 141.358C212.467 141.358 217.887 135.938 217.887 129.253C217.887 128.324 217.783 127.421 217.585 126.553C217.397 125.728 217.798 124.858 218.543 124.573C218.552 124.57 218.557 124.56 218.554 124.551C218.55 124.541 218.557 124.529 218.568 124.528C220.506 124.278 222.483 124.15 224.49 124.15C225.932 124.15 227.359 124.216 228.768 124.346C228.784 124.348 228.795 124.365 228.789 124.381C228.784 124.394 228.791 124.409 228.804 124.414C229.533 124.711 229.925 125.584 229.727 126.405C229.507 127.318 229.391 128.272 229.391 129.253C229.391 135.938 234.81 141.358 241.496 141.358C245.853 141.358 249.671 139.057 251.804 135.604ZM241.496 144.358C245.716 144.358 249.532 142.628 252.273 139.837C252.974 139.124 254.13 139.013 254.838 139.72C255.545 140.428 255.435 141.584 254.721 142.286C251.931 145.026 250.2 148.842 250.2 153.062C250.2 161.405 256.963 168.168 265.306 168.168C265.313 168.168 265.32 168.168 265.327 168.168C266.423 168.166 267.408 168.972 267.408 170.068C267.408 170.665 267.396 171.259 267.372 171.851C267.328 172.912 266.368 173.671 265.306 173.671C256.963 173.671 250.2 180.434 250.2 188.776C250.2 192.595 251.617 196.083 253.954 198.742C254.604 199.482 254.653 200.615 253.936 201.291C253.251 201.938 252.178 201.864 251.47 201.242C248.81 198.9 245.319 197.48 241.496 197.48C233.154 197.48 226.391 204.243 226.391 212.586C226.391 212.785 226.235 212.952 226.036 212.959C225.523 212.977 225.007 212.986 224.49 212.986C223.361 212.986 222.242 212.943 221.136 212.857C220.995 212.846 220.887 212.727 220.887 212.586C220.887 204.243 214.124 197.48 205.782 197.48C202.382 197.48 199.244 198.604 196.72 200.499C195.939 201.086 194.833 201.107 194.142 200.416C193.451 199.725 193.472 198.619 194.059 197.838C195.955 195.314 197.078 192.176 197.078 188.776C197.078 180.434 190.315 173.671 181.972 173.671C181.831 173.671 181.711 173.563 181.7 173.422C181.615 172.315 181.571 171.197 181.571 170.068C181.571 169.551 181.58 169.035 181.599 168.523C181.606 168.323 181.773 168.168 181.972 168.168C190.315 168.168 197.078 161.405 197.078 153.062C197.078 149.239 195.658 145.748 193.316 143.087C192.693 142.38 192.619 141.307 193.267 140.621C193.942 139.905 195.076 139.954 195.815 140.604C198.475 142.941 201.963 144.358 205.782 144.358C214.124 144.358 220.887 137.595 220.887 129.253C220.887 128.19 221.646 127.229 222.708 127.186C223.299 127.162 223.893 127.15 224.49 127.15C225.586 127.15 226.392 128.135 226.391 129.231C226.391 129.238 226.391 129.246 226.391 129.253C226.391 137.595 233.154 144.358 241.496 144.358ZM224.489 188.976C214.047 188.976 205.581 180.51 205.581 170.068C205.581 159.625 214.047 151.16 224.489 151.16C234.932 151.16 243.397 159.625 243.397 170.068C243.397 180.51 234.932 188.976 224.489 188.976ZM202.581 170.068C202.581 182.167 212.39 191.976 224.489 191.976C236.589 191.976 246.397 182.167 246.397 170.068C246.397 157.968 236.589 148.16 224.489 148.16C212.39 148.16 202.581 157.968 202.581 170.068Z" fill="url(#paint1_linear_1433_540)"/>
<path d="M251.804 135.604L254.356 137.18L254.356 137.18L251.804 135.604ZM258.954 142.755L257.378 140.202L257.378 140.202L258.954 142.755ZM268.153 164.831L268.856 167.747L268.153 164.831ZM268.006 176.973L268.672 174.048H268.672L268.006 176.973ZM258.126 198.524L259.907 196.11L258.126 198.524ZM258.505 200.914L256.283 198.898L256.263 198.92L256.244 198.942L258.505 200.914ZM258.484 200.937L260.705 202.955L260.705 202.955L258.484 200.937ZM258.463 200.96L256.286 198.896L256.265 198.919L256.244 198.941L258.463 200.96ZM253.52 205.647L251.622 203.324L251.594 203.347L251.566 203.37L253.52 205.647ZM253.492 205.671L255.387 207.996L255.388 207.995L253.492 205.671ZM253.463 205.694L251.625 203.323L251.597 203.345L251.569 203.367L253.463 205.694ZM253.388 205.755L255.277 208.085L255.277 208.085L253.388 205.755ZM251.151 205.283L248.76 207.094L248.76 207.094L251.151 205.283ZM229.467 213.956L226.486 214.292V214.292L229.467 213.956ZM228.095 215.847L227.863 212.856L227.814 212.86L227.765 212.865L228.095 215.847ZM228.044 215.852L227.815 212.86L227.815 212.86L228.044 215.852ZM227.994 215.855L227.867 212.857L227.817 212.859L227.768 212.863L227.994 215.855ZM219.25 215.691L219.589 212.71L219.538 212.704L219.487 212.7L219.25 215.691ZM219.198 215.686L218.856 218.666L218.856 218.666L219.198 215.686ZM219.145 215.679L219.592 212.712L219.543 212.705L219.494 212.699L219.145 215.679ZM217.825 213.817L214.841 213.515V213.515L217.825 213.817ZM196.74 204.536L194.5 202.541L194.5 202.541L196.74 204.536ZM194.474 204.819L196.434 202.547L196.396 202.515L196.358 202.484L194.474 204.819ZM194.434 204.785L192.469 207.052L192.469 207.053L194.434 204.785ZM194.411 204.765L192.399 206.991L192.4 206.991L194.411 204.765ZM194.394 204.75L196.438 202.553L196.4 202.518L196.361 202.485L194.394 204.75ZM189.807 200.163L192.072 198.196L192.04 198.158L192.005 198.121L189.807 200.163ZM189.773 200.125L192.04 198.16L192.04 198.159L189.773 200.125ZM189.757 200.106L192.056 198.178L192.056 198.178L189.757 200.106ZM189.74 200.085L192.073 198.199L192.043 198.162L192.012 198.126L189.74 200.085ZM190.022 197.818L192.018 200.058L192.018 200.058L190.022 197.818ZM180.742 176.733L181.043 179.718H181.043L180.742 176.733ZM178.877 175.399L181.857 175.05L181.853 175.015L181.848 174.981L178.877 175.399ZM178.873 175.361L175.892 175.703L175.892 175.703L178.873 175.361ZM178.869 175.323L181.857 175.057L181.854 175.02L181.849 174.983L178.869 175.323ZM178.704 166.545L181.696 166.772L181.698 166.742L181.7 166.712L178.704 166.545ZM178.706 166.514L181.698 166.743L181.698 166.743L178.706 166.514ZM178.709 166.483L181.695 166.774L181.698 166.744L181.7 166.714L178.709 166.483ZM180.602 165.091L180.266 168.072H180.266L180.602 165.091ZM189.276 143.407L191.087 141.016L191.087 141.016L189.276 143.407ZM196.034 136.432L198.448 134.651L198.448 134.651L196.034 136.432ZM217.585 126.553L220.51 125.886V125.886L217.585 126.553ZM229.727 126.405L232.644 127.108L232.644 127.108L229.727 126.405ZM205.581 170.068H208.581H205.581ZM224.489 151.16V154.16V151.16ZM202.581 170.068H205.581H202.581ZM224.489 148.16V151.16V148.16ZM226.391 129.231L223.391 129.227L226.391 129.231ZM253.312 205.816L251.428 203.481L253.312 205.816ZM181.7 173.422L184.691 173.191L181.7 173.422ZM258.69 200.647L256.047 199.227L258.69 200.647ZM194.059 197.838L191.66 196.037L194.059 197.838ZM196.72 200.499L194.919 198.1L196.72 200.499ZM270.03 175.99L273.005 176.373L270.03 175.99ZM226.036 212.959L225.93 209.961L226.036 212.959ZM259.72 140.616L257.419 142.541L259.72 140.616ZM265.327 168.168L265.323 165.168L265.327 168.168ZM228.804 124.414L229.936 121.636L228.804 124.414ZM218.568 124.528L218.185 121.553L218.568 124.528ZM218.543 124.573L217.475 121.77L218.543 124.573ZM193.911 135.868L192.491 133.225L193.911 135.868ZM188.748 141.27L191.356 142.752L188.748 141.27ZM228.768 124.346L229.043 121.359L228.768 124.346ZM219.035 215.658L219.704 212.733L219.035 215.658ZM193.861 135.857L191.859 133.623L193.861 135.857ZM228.272 215.833L228.028 212.843L228.272 215.833ZM253.288 205.81L254.77 208.419L253.288 205.81ZM178.725 166.286L175.735 166.043L178.725 166.286ZM259.698 140.69L256.936 141.861L259.698 140.69ZM178.745 166.273L181.657 166.993L178.745 166.273ZM178.891 175.516L175.911 175.865L178.891 175.516ZM219.041 215.667L218.692 218.646L219.041 215.667ZM258.701 200.697L256.466 198.695L258.701 200.697ZM221.136 212.857L220.904 215.848L221.136 212.857ZM178.9 175.522L175.975 176.19L178.9 175.522ZM189.668 200.002L191.94 198.043L189.668 200.002ZM270.144 165.754L272.922 164.621L270.144 165.754ZM251.47 201.242L253.452 198.989L251.47 201.242ZM189.67 199.991L187.195 201.687L189.67 199.991ZM188.742 141.245L191.076 143.13L188.742 141.245ZM228.285 215.813L227.566 212.901L228.285 215.813ZM270.211 165.79L273.199 165.514L270.211 165.79ZM253.942 134.838L252.016 137.138L253.942 134.838ZM194.556 204.889L192.597 207.161L194.556 204.889ZM253.868 134.86L252.698 137.623L253.868 134.86ZM254.721 142.286L256.823 144.426L254.721 142.286ZM269.985 176.014L267.181 174.947L269.985 176.014ZM252.273 139.837L250.132 137.735L252.273 139.837ZM194.566 204.888L192.869 207.362L194.566 204.888ZM255.037 132.097C252.759 131.133 250.358 132.234 249.251 134.028L254.356 137.18C254.214 137.409 254.004 137.577 253.755 137.667C253.504 137.758 253.119 137.801 252.698 137.623L255.037 132.097ZM262.021 138.691C260.156 136.462 258.096 134.402 255.867 132.537L252.016 137.138C253.973 138.776 255.782 140.585 257.419 142.541L262.021 138.691ZM260.531 145.307C262.324 144.2 263.426 141.798 262.46 139.519L256.936 141.861C256.757 141.44 256.8 141.054 256.891 140.803C256.981 140.554 257.149 140.344 257.378 140.202L260.531 145.307ZM256.2 153.062C256.2 149.789 257.925 146.916 260.531 145.307L257.378 140.202C253.077 142.858 250.2 147.623 250.2 153.062H256.2ZM265.306 162.168C260.277 162.168 256.2 158.091 256.2 153.062H250.2C250.2 161.405 256.963 168.168 265.306 168.168V162.168ZM267.45 161.914C266.765 162.079 266.048 162.168 265.306 162.168V168.168C266.525 168.168 267.714 168.022 268.856 167.747L267.45 161.914ZM272.922 164.621C271.981 162.316 269.489 161.423 267.45 161.914L268.856 167.747C268.599 167.809 268.334 167.782 268.092 167.671C267.848 167.559 267.541 167.315 267.366 166.888L272.922 164.621ZM273.408 170.068C273.408 168.533 273.337 167.014 273.199 165.514L267.224 166.066C267.346 167.383 267.408 168.718 267.408 170.068H273.408ZM273.005 176.373C273.271 174.308 273.408 172.203 273.408 170.068H267.408C267.408 171.946 267.288 173.795 267.054 175.607L273.005 176.373ZM267.339 179.898C269.377 180.362 271.888 179.448 272.789 177.082L267.181 174.947C267.347 174.512 267.655 174.256 267.906 174.136C268.152 174.019 268.418 173.99 268.672 174.048L267.339 179.898ZM265.306 179.671C266.008 179.671 266.688 179.75 267.339 179.898L268.672 174.048C267.587 173.801 266.459 173.671 265.306 173.671V179.671ZM256.2 188.776C256.2 183.748 260.277 179.671 265.306 179.671V173.671C256.963 173.671 250.2 180.434 250.2 188.776H256.2ZM259.907 196.11C257.653 194.447 256.2 191.782 256.2 188.776H250.2C250.2 193.767 252.624 198.193 256.345 200.938L259.907 196.11ZM261.333 202.067C262.522 199.853 261.597 197.356 259.907 196.11L256.345 200.938C256.132 200.781 255.98 200.558 255.909 200.295C255.836 200.028 255.83 199.632 256.047 199.227L261.333 202.067ZM260.727 202.93C260.796 202.853 260.866 202.776 260.935 202.699L256.466 198.695C256.406 198.763 256.345 198.831 256.283 198.898L260.727 202.93ZM260.705 202.955C260.726 202.931 260.746 202.909 260.766 202.886L256.244 198.942C256.25 198.936 256.257 198.928 256.264 198.92L260.705 202.955ZM260.641 203.023C260.663 203.001 260.684 202.978 260.705 202.955L256.264 198.92C256.271 198.912 256.278 198.904 256.286 198.896L260.641 203.023ZM255.418 207.971C257.294 206.438 259.054 204.769 260.682 202.979L256.244 198.941C254.814 200.513 253.269 201.978 251.622 203.324L255.418 207.971ZM255.388 207.995C255.416 207.973 255.444 207.949 255.473 207.924L251.566 203.37C251.577 203.361 251.587 203.353 251.595 203.346L255.388 207.995ZM255.301 208.065C255.331 208.041 255.36 208.018 255.387 207.996L251.596 203.346C251.605 203.339 251.614 203.331 251.625 203.323L255.301 208.065ZM255.277 208.085C255.304 208.063 255.33 208.042 255.357 208.02L251.569 203.367C251.545 203.386 251.521 203.406 251.498 203.425L255.277 208.085ZM255.197 208.15C255.223 208.128 255.25 208.107 255.277 208.085L251.498 203.424C251.475 203.443 251.451 203.462 251.428 203.481L255.197 208.15ZM248.76 207.094C250.021 208.759 252.544 209.684 254.77 208.419L251.806 203.202C252.206 202.975 252.61 202.97 252.89 203.042C253.161 203.112 253.385 203.264 253.542 203.471L248.76 207.094ZM241.496 203.48C244.46 203.48 247.092 204.893 248.76 207.094L253.542 203.471C250.789 199.837 246.417 197.48 241.496 197.48V203.48ZM232.391 212.586C232.391 207.557 236.467 203.48 241.496 203.48V197.48C233.154 197.48 226.391 204.243 226.391 212.586H232.391ZM232.449 213.621C232.41 213.282 232.391 212.937 232.391 212.586H226.391C226.391 213.162 226.423 213.731 226.486 214.292L232.449 213.621ZM229.003 218.726C231.505 218.109 232.681 215.684 232.449 213.621L226.486 214.292C226.458 214.04 226.513 213.777 226.662 213.538C226.816 213.291 227.116 213.012 227.566 212.901L229.003 218.726ZM228.327 218.838C228.39 218.833 228.453 218.828 228.515 218.823L228.028 212.843C227.973 212.847 227.918 212.852 227.863 212.856L228.327 218.838ZM228.273 218.843C228.324 218.839 228.375 218.834 228.425 218.829L227.765 212.865C227.782 212.863 227.798 212.862 227.815 212.86L228.273 218.843ZM228.12 218.852C228.171 218.85 228.222 218.847 228.274 218.843L227.815 212.86C227.832 212.859 227.85 212.858 227.867 212.857L228.12 218.852ZM224.49 218.986C225.744 218.986 226.988 218.939 228.219 218.846L227.768 212.863C226.686 212.945 225.593 212.986 224.49 212.986V218.986ZM218.911 218.672C220.743 218.88 222.605 218.986 224.49 218.986V212.986C222.831 212.986 221.196 212.892 219.589 212.71L218.911 218.672ZM218.856 218.666C218.908 218.672 218.961 218.677 219.013 218.681L219.487 212.7C219.505 212.701 219.522 212.703 219.539 212.705L218.856 218.666ZM218.698 218.645C218.751 218.653 218.804 218.66 218.856 218.666L219.54 212.705C219.556 212.707 219.574 212.709 219.592 212.712L218.698 218.645ZM218.692 218.646L218.796 218.658L219.494 212.699L219.39 212.687L218.692 218.646ZM214.841 213.515C214.633 215.573 215.827 218.002 218.367 218.582L219.704 212.733C220.154 212.836 220.462 213.111 220.625 213.365C220.78 213.606 220.835 213.869 220.81 214.118L214.841 213.515ZM214.887 212.586C214.887 212.901 214.871 213.21 214.841 213.515L220.81 214.118C220.861 213.613 220.887 213.102 220.887 212.586H214.887ZM205.782 203.48C210.811 203.48 214.887 207.557 214.887 212.586H220.887C220.887 204.243 214.124 197.48 205.782 197.48V203.48ZM198.98 206.532C200.652 204.655 203.078 203.48 205.782 203.48V197.48C201.295 197.48 197.263 199.44 194.5 202.541L198.98 206.532ZM192.869 207.362C195.003 208.826 197.598 208.084 198.98 206.532L194.5 202.541C194.67 202.35 194.905 202.214 195.186 202.165C195.48 202.114 195.886 202.155 196.263 202.414L192.869 207.362ZM192.515 207.091L192.597 207.161L196.515 202.618L196.434 202.547L192.515 207.091ZM192.469 207.053C192.509 207.087 192.549 207.121 192.591 207.154L196.358 202.484C196.372 202.495 196.385 202.507 196.398 202.518L192.469 207.053ZM192.4 206.991C192.423 207.012 192.446 207.033 192.469 207.052L196.398 202.518C196.406 202.524 196.413 202.531 196.422 202.539L192.4 206.991ZM192.351 206.946C192.367 206.961 192.383 206.976 192.399 206.991L196.422 202.539C196.427 202.544 196.432 202.549 196.438 202.553L192.351 206.946ZM187.542 202.13C189.054 203.871 190.687 205.503 192.427 207.015L196.361 202.485C194.833 201.158 193.4 199.724 192.072 198.196L187.542 202.13ZM187.506 202.089C187.539 202.128 187.574 202.166 187.609 202.204L192.005 198.121C192.018 198.134 192.029 198.147 192.04 198.16L187.506 202.089ZM187.459 202.034C187.474 202.052 187.49 202.071 187.506 202.09L192.04 198.159C192.046 198.166 192.051 198.173 192.056 198.178L187.459 202.034ZM187.407 201.971C187.424 201.992 187.441 202.013 187.459 202.034L192.056 198.178C192.062 198.185 192.068 198.192 192.073 198.199L187.407 201.971ZM187.397 201.961L187.468 202.044L192.012 198.126L191.94 198.043L187.397 201.961ZM188.026 195.578C186.475 196.96 185.733 199.553 187.195 201.687L192.145 198.295C192.403 198.673 192.444 199.079 192.393 199.372C192.344 199.654 192.208 199.888 192.018 200.058L188.026 195.578ZM191.078 188.776C191.078 191.48 189.903 193.906 188.026 195.578L192.018 200.058C195.118 197.296 197.078 193.263 197.078 188.776H191.078ZM181.972 179.671C187.001 179.671 191.078 183.748 191.078 188.776H197.078C197.078 180.434 190.315 173.671 181.972 173.671V179.671ZM181.043 179.718C181.348 179.687 181.658 179.671 181.972 179.671V173.671C181.456 173.671 180.945 173.697 180.44 173.748L181.043 179.718ZM175.975 176.19C176.556 178.731 178.985 179.925 181.043 179.718L180.44 173.748C180.689 173.723 180.952 173.779 181.194 173.934C181.447 174.096 181.722 174.405 181.825 174.854L175.975 176.19ZM175.898 175.747L175.911 175.865L181.871 175.168L181.857 175.05L175.898 175.747ZM175.892 175.703C175.896 175.74 175.901 175.778 175.907 175.816L181.848 174.981C181.85 174.994 181.852 175.006 181.853 175.019L175.892 175.703ZM175.88 175.588C175.884 175.626 175.888 175.664 175.892 175.703L181.853 175.019C181.854 175.031 181.856 175.044 181.857 175.057L175.88 175.588ZM175.571 170.068C175.571 171.959 175.679 173.825 175.888 175.662L181.849 174.983C181.666 173.371 181.571 171.731 181.571 170.068H175.571ZM175.713 166.318C175.619 167.556 175.571 168.807 175.571 170.068H181.571C181.571 168.958 181.613 167.859 181.696 166.772L175.713 166.318ZM175.715 166.285C175.713 166.316 175.711 166.347 175.709 166.378L181.7 166.712C181.699 166.722 181.699 166.733 181.698 166.743L175.715 166.285ZM175.723 166.193C175.72 166.223 175.718 166.254 175.715 166.285L181.698 166.743C181.697 166.753 181.696 166.763 181.695 166.774L175.723 166.193ZM175.735 166.043C175.729 166.112 175.723 166.182 175.718 166.252L181.7 166.714C181.705 166.653 181.71 166.591 181.715 166.53L175.735 166.043ZM180.938 162.11C178.874 161.877 176.451 163.052 175.833 165.553L181.657 166.993C181.546 167.443 181.267 167.742 181.02 167.896C180.781 168.045 180.518 168.1 180.266 168.072L180.938 162.11ZM181.972 162.168C181.621 162.168 181.276 162.148 180.938 162.11L180.266 168.072C180.827 168.135 181.396 168.168 181.972 168.168V162.168ZM191.078 153.062C191.078 158.091 187.001 162.168 181.972 162.168V168.168C190.315 168.168 197.078 161.405 197.078 153.062H191.078ZM187.464 145.798C189.665 147.466 191.078 150.099 191.078 153.062H197.078C197.078 148.141 194.721 143.769 191.087 141.016L187.464 145.798ZM186.139 139.788C184.875 142.014 185.8 144.537 187.464 145.798L191.087 141.016C191.295 141.173 191.447 141.397 191.516 141.668C191.588 141.948 191.583 142.352 191.356 142.752L186.139 139.788ZM191.859 133.623C189.892 135.385 188.068 137.304 186.408 139.361L191.076 143.13C192.534 141.324 194.135 139.639 195.862 138.091L191.859 133.623ZM198.448 134.651C197.202 132.962 194.706 132.036 192.491 133.225L195.331 138.511C194.926 138.728 194.53 138.722 194.263 138.65C194 138.578 193.778 138.427 193.62 138.213L198.448 134.651ZM205.782 138.358C202.777 138.358 200.111 136.905 198.448 134.651L193.62 138.213C196.365 141.934 200.791 144.358 205.782 144.358V138.358ZM214.887 129.253C214.887 134.281 210.811 138.358 205.782 138.358V144.358C214.124 144.358 220.887 137.595 220.887 129.253H214.887ZM214.66 127.219C214.808 127.87 214.887 128.55 214.887 129.253H220.887C220.887 128.099 220.757 126.972 220.51 125.886L214.66 127.219ZM217.475 121.77C215.11 122.672 214.196 125.182 214.66 127.219L220.51 125.886C220.568 126.14 220.539 126.406 220.422 126.652C220.302 126.903 220.046 127.211 219.612 127.377L217.475 121.77ZM224.49 121.15C222.355 121.15 220.25 121.287 218.185 121.553L218.951 127.503C220.763 127.27 222.611 127.15 224.49 127.15V121.15ZM229.043 121.359C227.543 121.22 226.024 121.15 224.49 121.15V127.15C225.84 127.15 227.175 127.212 228.492 127.334L229.043 121.359ZM232.644 127.108C233.136 125.069 232.242 122.576 229.936 121.636L227.671 127.192C227.243 127.018 227 126.71 226.888 126.466C226.776 126.224 226.749 125.96 226.811 125.702L232.644 127.108ZM232.391 129.253C232.391 128.51 232.479 127.793 232.644 127.108L226.811 125.702C226.536 126.844 226.391 128.033 226.391 129.253H232.391ZM241.496 138.358C236.467 138.358 232.391 134.281 232.391 129.253H226.391C226.391 137.595 233.154 144.358 241.496 144.358V138.358ZM249.251 134.028C247.642 136.633 244.769 138.358 241.496 138.358V144.358C246.936 144.358 251.7 141.481 254.356 137.18L249.251 134.028ZM250.132 137.735C247.933 139.975 244.879 141.358 241.496 141.358V147.358C246.554 147.358 251.131 145.28 254.413 141.94L250.132 137.735ZM253.2 153.062C253.2 149.68 254.584 146.626 256.823 144.426L252.618 140.145C249.278 143.427 247.2 148.005 247.2 153.062H253.2ZM265.306 165.168C258.62 165.168 253.2 159.748 253.2 153.062H247.2C247.2 163.061 255.306 171.168 265.306 171.168V165.168ZM265.323 165.168C265.317 165.168 265.311 165.168 265.306 165.168V171.168C265.314 171.168 265.323 171.168 265.331 171.168L265.323 165.168ZM270.369 171.973C270.395 171.341 270.408 170.706 270.408 170.068H264.408C264.408 170.624 264.397 171.178 264.374 171.728L270.369 171.973ZM253.2 188.776C253.2 182.091 258.62 176.671 265.306 176.671V170.671C255.306 170.671 247.2 178.777 247.2 188.776H253.2ZM256.208 196.762C254.333 194.629 253.2 191.839 253.2 188.776H247.2C247.2 193.351 248.901 197.536 251.7 200.722L256.208 196.762ZM241.496 200.48C244.562 200.48 247.355 201.616 249.489 203.494L253.452 198.989C250.265 196.185 246.076 194.48 241.496 194.48V200.48ZM229.391 212.586C229.391 205.9 234.81 200.48 241.496 200.48V194.48C231.497 194.48 223.391 202.587 223.391 212.586H229.391ZM224.49 215.986C225.043 215.986 225.594 215.977 226.142 215.957L225.93 209.961C225.452 209.978 224.972 209.986 224.49 209.986V215.986ZM220.904 215.848C222.088 215.94 223.284 215.986 224.49 215.986V209.986C223.438 209.986 222.397 209.946 221.367 209.866L220.904 215.848ZM205.782 200.48C212.467 200.48 217.887 205.9 217.887 212.586H223.887C223.887 202.587 215.781 194.48 205.782 194.48V200.48ZM198.522 202.898C200.544 201.379 203.054 200.48 205.782 200.48V194.48C201.71 194.48 197.945 195.828 194.919 198.1L198.522 202.898ZM194.078 188.776C194.078 191.504 193.179 194.014 191.66 196.037L196.458 199.639C198.73 196.613 200.078 192.848 200.078 188.776H194.078ZM181.972 176.671C188.658 176.671 194.078 182.091 194.078 188.776H200.078C200.078 178.777 191.972 170.671 181.972 170.671V176.671ZM178.571 170.068C178.571 171.274 178.618 172.47 178.709 173.653L184.691 173.191C184.612 172.161 184.571 171.12 184.571 170.068H178.571ZM178.6 168.416C178.581 168.965 178.571 169.515 178.571 170.068H184.571C184.571 169.586 184.58 169.106 184.597 168.629L178.6 168.416ZM194.078 153.062C194.078 159.748 188.658 165.168 181.972 165.168V171.168C191.972 171.168 200.078 163.061 200.078 153.062H194.078ZM191.064 145.069C192.942 147.203 194.078 149.996 194.078 153.062H200.078C200.078 148.482 198.373 144.293 195.568 141.106L191.064 145.069ZM205.782 141.358C202.719 141.358 199.929 140.225 197.796 138.35L193.835 142.857C197.021 145.657 201.207 147.358 205.782 147.358V141.358ZM217.887 129.253C217.887 135.938 212.467 141.358 205.782 141.358V147.358C215.781 147.358 223.887 139.252 223.887 129.253H217.887ZM224.49 124.15C223.852 124.15 223.217 124.163 222.586 124.188L222.83 130.183C223.381 130.161 223.934 130.15 224.49 130.15V124.15ZM229.391 129.253C229.391 129.247 229.391 129.241 229.391 129.236L223.391 129.227C223.391 129.236 223.391 129.244 223.391 129.253H229.391ZM241.496 141.358C234.81 141.358 229.391 135.938 229.391 129.253H223.391C223.391 139.252 231.497 147.358 241.496 147.358V141.358ZM202.581 170.068C202.581 182.167 212.39 191.976 224.489 191.976V185.976C215.703 185.976 208.581 178.854 208.581 170.068H202.581ZM224.489 148.16C212.39 148.16 202.581 157.968 202.581 170.068H208.581C208.581 161.282 215.703 154.16 224.489 154.16V148.16ZM246.397 170.068C246.397 157.968 236.589 148.16 224.489 148.16V154.16C233.275 154.16 240.397 161.282 240.397 170.068H246.397ZM224.489 191.976C236.589 191.976 246.397 182.167 246.397 170.068H240.397C240.397 178.854 233.275 185.976 224.489 185.976V191.976ZM224.489 188.976C214.047 188.976 205.581 180.51 205.581 170.068H199.581C199.581 183.824 210.733 194.976 224.489 194.976V188.976ZM243.397 170.068C243.397 180.51 234.932 188.976 224.489 188.976V194.976C238.246 194.976 249.397 183.824 249.397 170.068H243.397ZM224.489 151.16C234.932 151.16 243.397 159.625 243.397 170.068H249.397C249.397 156.311 238.246 145.16 224.489 145.16V151.16ZM205.581 170.068C205.581 159.625 214.047 151.16 224.489 151.16V145.16C210.733 145.16 199.581 156.311 199.581 170.068H205.581ZM224.49 130.15C224.087 130.15 223.772 129.956 223.603 129.765C223.451 129.592 223.39 129.403 223.391 129.227L229.391 129.236C229.394 126.84 227.582 124.15 224.49 124.15V130.15ZM251.428 203.481C252.859 202.326 254.984 202.724 255.901 204.318L250.699 207.309C251.62 208.912 253.757 209.312 255.197 208.15L251.428 203.481ZM195.449 142.68C195.158 142.988 194.781 143.102 194.491 143.1C194.223 143.098 194 143.002 193.835 142.857L197.796 138.35C196.08 136.843 193.074 136.454 191.084 138.563L195.449 142.68ZM195.568 141.106C195.708 141.264 195.804 141.48 195.813 141.741C195.823 142.023 195.726 142.386 195.449 142.68L191.084 138.563C189.186 140.575 189.61 143.417 191.064 145.069L195.568 141.106ZM181.972 170.671C183.356 170.671 184.578 171.728 184.691 173.191L178.709 173.653C178.844 175.399 180.306 176.671 181.972 176.671V170.671ZM256.047 199.227C255.284 200.648 255.765 202.472 257.238 203.292L260.156 198.049C261.611 198.859 262.087 200.663 261.333 202.067L256.047 199.227ZM196.263 198.295C196.52 198.551 196.617 198.869 196.621 199.111C196.625 199.333 196.555 199.51 196.458 199.639L191.66 196.037C190.353 197.777 190.078 200.595 192.021 202.537L196.263 198.295ZM194.919 198.1C195.048 198.003 195.225 197.934 195.448 197.937C195.689 197.941 196.007 198.038 196.263 198.295L192.021 202.537C193.963 204.48 196.781 204.205 198.522 202.898L194.919 198.1ZM267.054 175.607C267.299 173.704 269.249 172.528 271.044 173.189L268.97 178.819C270.786 179.488 272.757 178.298 273.005 176.373L267.054 175.607ZM223.391 212.586C223.391 211.231 224.454 210.013 225.93 209.961L226.142 215.957C228.016 215.891 229.391 214.34 229.391 212.586H223.391ZM264.374 171.728C264.39 171.339 264.584 171.038 264.775 170.876C264.948 170.728 265.135 170.671 265.306 170.671V176.671C267.639 176.671 270.247 174.96 270.369 171.973L264.374 171.728ZM257.419 142.541C256.155 141.03 256.683 138.731 258.477 137.922L260.945 143.39C262.77 142.567 263.307 140.228 262.021 138.691L257.419 142.541ZM265.331 171.168C265.155 171.168 264.966 171.107 264.793 170.955C264.602 170.786 264.408 170.47 264.408 170.068H270.408C270.408 166.976 267.718 165.164 265.323 165.168L265.331 171.168ZM225.988 123.306C225.382 124.885 226.188 126.587 227.671 127.192L229.936 121.636C231.393 122.23 232.186 123.903 231.59 125.456L225.988 123.306ZM221.369 123.514C222.03 125.309 220.854 127.258 218.951 127.503L218.185 121.553C216.26 121.8 215.07 123.772 215.739 125.588L221.369 123.514ZM219.612 127.377C221.122 126.801 221.953 125.1 221.369 123.514L215.739 125.588C215.161 124.02 215.982 122.339 217.475 121.77L219.612 127.377ZM191.266 137.321C192.086 138.793 193.91 139.274 195.331 138.511L192.491 133.225C193.895 132.471 195.698 132.947 196.509 134.402L191.266 137.321ZM191.356 142.752C192.16 141.338 191.7 139.497 190.24 138.657L187.249 143.859C185.797 143.024 185.341 141.194 186.139 139.788L191.356 142.752ZM228.492 127.334C226.526 127.152 225.283 125.143 225.988 123.306L231.59 125.456C232.307 123.587 231.043 121.544 229.043 121.359L228.492 127.334ZM221.961 216.338C222.341 214.694 221.299 213.098 219.704 212.733L218.367 218.582C216.776 218.219 215.736 216.627 216.115 214.986L221.961 216.338ZM195.862 138.091C194.437 139.368 192.196 138.991 191.266 137.321L196.509 134.402C195.568 132.712 193.301 132.331 191.859 133.623L195.862 138.091ZM225.364 216.535C224.928 214.747 226.193 212.992 228.028 212.843L228.515 218.823C230.36 218.672 231.632 216.908 231.193 215.111L225.364 216.535ZM255.901 204.318C255.061 202.858 253.22 202.398 251.806 203.202L254.77 208.419C253.364 209.218 251.534 208.761 250.699 207.309L255.901 204.318ZM184.597 168.629C184.544 170.104 183.327 171.168 181.972 171.168V165.168C180.218 165.168 178.667 166.542 178.6 168.416L184.597 168.629ZM181.715 166.53C181.565 168.365 179.811 169.63 178.024 169.194L179.446 163.365C177.649 162.926 175.885 164.198 175.735 166.043L181.715 166.53ZM258.477 137.922C256.938 138.616 256.311 140.388 256.936 141.861L262.46 139.519C263.073 140.966 262.458 142.707 260.945 143.39L258.477 137.922ZM178.024 169.194C179.663 169.594 181.267 168.574 181.657 166.993L175.833 165.553C176.221 163.981 177.816 162.967 179.446 163.365L178.024 169.194ZM178.219 172.597C179.96 172.194 181.663 173.394 181.871 175.168L175.911 175.865C176.119 177.643 177.827 178.846 179.572 178.442L178.219 172.597ZM219.39 212.687C221.164 212.895 222.363 214.598 221.961 216.338L216.115 214.986C215.712 216.73 216.914 218.438 218.692 218.646L219.39 212.687ZM257.238 203.292C255.567 202.362 255.189 200.121 256.466 198.695L260.935 202.699C262.227 201.256 261.845 198.99 260.156 198.049L257.238 203.292ZM221.367 209.866C222.83 209.979 223.887 211.202 223.887 212.586H217.887C217.887 214.252 219.159 215.713 220.904 215.848L221.367 209.866ZM181.825 174.854C181.461 173.26 179.865 172.216 178.219 172.597L179.572 178.442C177.931 178.822 176.339 177.781 175.975 176.19L181.825 174.854ZM251.7 200.722C251.556 200.558 251.46 200.334 251.458 200.066C251.455 199.776 251.57 199.399 251.878 199.109L255.995 203.473C258.104 201.484 257.715 198.478 256.208 196.762L251.7 200.722ZM191.94 198.043C193.105 199.394 192.839 201.458 191.369 202.469L187.969 197.524C186.495 198.538 186.228 200.607 187.397 201.961L191.94 198.043ZM267.366 166.888C267.972 168.371 269.674 169.175 271.252 168.569L269.102 162.968C270.654 162.372 272.327 163.164 272.922 164.621L267.366 166.888ZM251.878 199.109C252.172 198.831 252.535 198.735 252.816 198.744C253.078 198.754 253.294 198.85 253.452 198.989L249.489 203.494C251.141 204.948 253.983 205.372 255.995 203.473L251.878 199.109ZM191.369 202.469C192.755 201.515 193.067 199.641 192.145 198.295L187.195 201.687C186.275 200.345 186.586 198.475 187.969 197.524L191.369 202.469ZM223.887 129.253C223.887 129.423 223.83 129.61 223.683 129.783C223.52 129.974 223.219 130.168 222.83 130.183L222.586 124.188C219.598 124.31 217.887 126.919 217.887 129.253H223.887ZM190.24 138.657C191.834 139.574 192.232 141.699 191.076 143.13L186.408 139.361C185.246 140.8 185.646 142.937 187.249 143.859L190.24 138.657ZM227.566 212.901C225.984 213.291 224.964 214.895 225.364 216.535L231.193 215.111C231.591 216.742 230.576 218.338 229.003 218.726L227.566 212.901ZM271.252 168.569C269.414 169.275 267.406 168.032 267.224 166.066L273.199 165.514C273.014 163.515 270.971 162.25 269.102 162.968L271.252 168.569ZM256.636 136.081C255.826 137.875 253.528 138.403 252.016 137.138L255.867 132.537C254.33 131.251 251.991 131.788 251.167 133.613L256.636 136.081ZM192.089 203.189C193.1 201.719 195.164 201.452 196.515 202.618L192.597 207.161C193.951 208.329 196.02 208.062 197.033 206.588L192.089 203.189ZM252.698 137.623C254.171 138.246 255.942 137.62 256.636 136.081L251.167 133.613C251.85 132.1 253.591 131.485 255.037 132.097L252.698 137.623ZM252.716 141.842C252.402 141.527 252.299 141.126 252.318 140.822C252.335 140.542 252.45 140.311 252.618 140.145L256.823 144.426C258.49 142.788 259.067 139.707 256.959 137.599L252.716 141.842ZM271.044 173.189C269.458 172.605 267.757 173.436 267.181 174.947L272.789 177.082C272.22 178.575 270.538 179.397 268.97 178.819L271.044 173.189ZM254.413 141.94C254.247 142.108 254.016 142.223 253.736 142.24C253.433 142.259 253.031 142.156 252.716 141.842L256.959 137.599C254.851 135.491 251.77 136.068 250.132 137.735L254.413 141.94ZM196.263 202.414C194.918 201.491 193.043 201.802 192.089 203.189L197.033 206.588C196.082 207.972 194.212 208.283 192.869 207.362L196.263 202.414Z" fill="url(#paint2_linear_1433_540)" mask="url(#path-2-inside-1_1433_540)"/>
<path d="M96.691 220.267L55.0208 230.098C52.871 230.605 50.9287 228.694 51.4015 226.536L60.5642 184.714" stroke="url(#paint3_linear_1433_540)" stroke-width="3"/>
<mask id="path-5-inside-2_1433_540" fill="white">
<path fill-rule="evenodd" clip-rule="evenodd" d="M224.19 54.24L223.121 53.1879L223.12 53.1889L206.302 36.6384L205.233 35.5863L204.181 36.6554L60.3321 182.826L59.28 183.895L60.3491 184.947L78.235 202.549L79.3041 203.601L79.3051 203.6L96.1227 220.15L97.1918 221.202L98.2439 220.133L242.093 73.9631L243.145 72.894L242.076 71.8419L224.19 54.24ZM81.4101 201.462L223.155 57.4304L238.903 72.928L97.1578 216.96L81.4101 201.462ZM63.5225 183.861L205.267 39.8288L221.015 55.3264L79.2701 199.358L63.5225 183.861Z"/>
</mask>
<path fill-rule="evenodd" clip-rule="evenodd" d="M224.19 54.24L223.121 53.1879L223.12 53.1889L206.302 36.6384L205.233 35.5863L204.181 36.6554L60.3321 182.826L59.28 183.895L60.3491 184.947L78.235 202.549L79.3041 203.601L79.3051 203.6L96.1227 220.15L97.1918 221.202L98.2439 220.133L242.093 73.9631L243.145 72.894L242.076 71.8419L224.19 54.24ZM81.4101 201.462L223.155 57.4304L238.903 72.928L97.1578 216.96L81.4101 201.462ZM63.5225 183.861L205.267 39.8288L221.015 55.3264L79.2701 199.358L63.5225 183.861Z" fill="url(#paint4_linear_1433_540)"/>
<path d="M223.121 53.1879L225.225 51.0496L223.087 48.9454L220.983 51.0836L223.121 53.1879ZM223.12 53.1889L221.016 55.3271L223.154 57.4314L225.258 55.2932L223.12 53.1889ZM206.302 36.6384L208.407 34.5002L206.302 36.6384ZM205.233 35.5863L207.338 33.4481L205.199 31.3438L203.095 33.482L205.233 35.5863ZM204.181 36.6554L206.319 38.7597L204.181 36.6554ZM60.3321 182.826L58.1939 180.721L60.3321 182.826ZM59.28 183.895L57.1417 181.79L55.0375 183.929L57.1757 186.033L59.28 183.895ZM60.3491 184.947L58.2448 187.085L60.3491 184.947ZM78.235 202.549L80.3392 200.41L78.235 202.549ZM79.3041 203.601L77.1998 205.739L79.338 207.843L81.4423 205.705L79.3041 203.601ZM79.3051 203.6L81.4094 201.462L79.2712 199.357L77.1669 201.496L79.3051 203.6ZM96.1227 220.15L98.2269 218.012L96.1227 220.15ZM97.1918 221.202L95.0875 223.341L97.2257 225.445L99.33 223.307L97.1918 221.202ZM243.145 72.894L245.283 74.9983L247.388 72.8601L245.249 70.7558L243.145 72.894ZM242.076 71.8419L244.18 69.7037L242.076 71.8419ZM223.155 57.4304L225.259 55.2921L223.121 53.1879L221.017 55.3261L223.155 57.4304ZM81.4101 201.462L79.2719 199.358L77.1676 201.496L79.3059 203.601L81.4101 201.462ZM238.903 72.928L241.041 75.0323L243.145 72.894L241.007 70.7897L238.903 72.928ZM97.1578 216.96L95.0535 219.098L97.1918 221.202L99.2961 219.064L97.1578 216.96ZM205.267 39.8288L207.372 37.6906L205.233 35.5863L203.129 37.7245L205.267 39.8288ZM63.5225 183.861L61.3842 181.756L59.28 183.895L61.4182 185.999L63.5225 183.861ZM221.015 55.3264L223.153 57.4307L225.257 55.2925L223.119 53.1882L221.015 55.3264ZM79.2701 199.358L77.1659 201.497L79.3041 203.601L81.4084 201.463L79.2701 199.358ZM221.017 55.3261L222.086 56.3782L226.294 52.1018L225.225 51.0496L221.017 55.3261ZM225.258 55.2932L225.259 55.2921L220.983 51.0836L220.982 51.0846L225.258 55.2932ZM204.198 38.7767L221.016 55.3271L225.224 51.0507L208.407 34.5002L204.198 38.7767ZM203.129 37.7245L204.198 38.7767L208.407 34.5002L207.338 33.4481L203.129 37.7245ZM206.319 38.7597L207.372 37.6906L203.095 33.482L202.043 34.5511L206.319 38.7597ZM62.4703 184.93L206.319 38.7597L202.043 34.5511L58.1939 180.721L62.4703 184.93ZM61.4182 185.999L62.4703 184.93L58.1939 180.721L57.1417 181.79L61.4182 185.999ZM62.4533 182.809L61.3842 181.756L57.1757 186.033L58.2448 187.085L62.4533 182.809ZM80.3392 200.41L62.4533 182.809L58.2448 187.085L76.1307 204.687L80.3392 200.41ZM81.4084 201.463L80.3392 200.41L76.1307 204.687L77.1998 205.739L81.4084 201.463ZM77.1669 201.496L77.1659 201.497L81.4423 205.705L81.4434 205.704L77.1669 201.496ZM98.2269 218.012L81.4094 201.462L77.2009 205.738L94.0184 222.289L98.2269 218.012ZM99.2961 219.064L98.2269 218.012L94.0184 222.289L95.0875 223.341L99.2961 219.064ZM96.1057 218.029L95.0535 219.098L99.33 223.307L100.382 222.238L96.1057 218.029ZM239.955 71.8589L96.1057 218.029L100.382 222.238L244.231 76.0674L239.955 71.8589ZM241.007 70.7897L239.955 71.8589L244.231 76.0674L245.283 74.9983L241.007 70.7897ZM239.972 73.9801L241.041 75.0323L245.249 70.7558L244.18 69.7037L239.972 73.9801ZM222.086 56.3782L239.972 73.9801L244.18 69.7037L226.294 52.1018L222.086 56.3782ZM221.017 55.3261L79.2719 199.358L83.5484 203.567L225.293 59.5346L221.017 55.3261ZM241.007 70.7897L225.259 55.2921L221.051 59.5686L236.798 75.0662L241.007 70.7897ZM99.2961 219.064L241.041 75.0323L236.764 70.8237L95.0196 214.856L99.2961 219.064ZM79.3059 203.601L95.0535 219.098L99.2621 214.822L83.5144 199.324L79.3059 203.601ZM203.129 37.7245L61.3842 181.756L65.6607 185.965L207.406 41.9331L203.129 37.7245ZM223.119 53.1882L207.372 37.6906L203.163 41.967L218.911 57.4646L223.119 53.1882ZM81.4084 201.463L223.153 57.4307L218.877 53.2221L77.1319 197.254L81.4084 201.463ZM61.4182 185.999L77.1659 201.497L81.3744 197.22L65.6267 181.723L61.4182 185.999Z" fill="url(#paint5_linear_1433_540)" mask="url(#path-5-inside-2_1433_540)"/>
<rect width="50.1889" height="15.0518" transform="matrix(0.712743 0.701425 0.701425 -0.712743 205.25 37.7076)" stroke="#0049FA" stroke-width="3" stroke-linecap="round"/>
<path d="M252.499 61.2458C263.848 49.714 265.04 32.4851 255.162 22.7638C245.284 13.0426 228.076 14.5102 216.727 26.042" stroke="url(#paint6_linear_1433_540)" stroke-width="3"/>
<path fill-rule="evenodd" clip-rule="evenodd" d="M154.641 62.934C143.752 63.1438 129.038 67.1995 116.871 75.9629C104.284 85.0294 94.3218 99.229 94.3218 119.41C94.3218 139.491 102.505 151.015 110.401 160.713C111.076 161.543 111.745 162.356 112.404 163.155C119.482 171.753 125.334 178.862 125.334 190.199C125.334 191.607 126.476 192.75 127.885 192.75H181.973C182.146 192.75 182.32 192.75 182.493 192.75C183.902 192.75 185.044 191.607 185.044 190.199C185.044 178.862 190.895 171.754 197.973 163.156C198.632 162.356 199.301 161.543 199.977 160.713C207.873 151.015 216.056 139.491 216.056 119.41C216.056 99.229 206.094 85.0294 193.506 75.9629C181.34 67.1995 166.626 63.1438 155.737 62.934C155.667 62.9283 155.597 62.9254 155.526 62.9254C155.414 62.9254 155.302 62.9258 155.189 62.9266C155.076 62.9258 154.964 62.9254 154.852 62.9254C154.781 62.9254 154.71 62.9283 154.641 62.934Z" fill="#080816"/>
<path fill-rule="evenodd" clip-rule="evenodd" d="M154.983 67.0077C144.696 67.2049 130.796 71.0161 119.302 79.2514C107.411 87.7715 98.0005 101.115 98.0005 120.08C98.0005 138.951 105.731 149.78 113.19 158.894C113.828 159.674 114.46 160.437 115.082 161.189C121.769 169.269 127.297 175.949 127.297 186.602C127.297 187.926 128.37 189 129.694 189H180.803C180.966 189 181.131 189 181.294 189C182.625 189 183.704 187.926 183.704 186.602C183.704 175.949 189.232 169.27 195.918 161.19C196.54 160.438 197.172 159.674 197.811 158.894C205.27 149.78 213 138.951 213 120.08C213 101.115 203.59 87.7715 191.699 79.2514C180.205 71.0161 166.305 67.2049 156.018 67.0077C155.953 67.0023 155.886 66.9996 155.819 66.9996C155.713 66.9996 155.607 67 155.5 67.0008C155.394 67 155.288 66.9996 155.182 66.9996C155.115 66.9996 155.048 67.0023 154.983 67.0077Z" fill="url(#paint7_linear_1433_540)"/>
<path d="M154.85 65.4764C175.749 65.4764 213.503 80.9824 213.503 119.41C213.503 157.838 182.491 163.232 182.491 190.199M155.524 65.4764C134.625 65.4764 96.8711 80.9824 96.8711 119.41C96.8711 157.838 127.883 163.232 127.883 190.199" stroke="url(#paint8_linear_1433_540)" stroke-width="3" stroke-linecap="round"/>
<line x1="127.35" y1="205.983" x2="182.173" y2="205.983" stroke="#0049FA" stroke-width="3" stroke-linecap="round"/>
<line x1="140.956" y1="233.194" x2="170.268" y2="233.194" stroke="#0049FA" stroke-width="3" stroke-linecap="round"/>
<line x1="134.153" y1="219.588" x2="177.071" y2="219.588" stroke="#0049FA" stroke-width="3" stroke-linecap="round"/>
<path d="M153.911 184.524V164.864C153.911 162.103 151.673 159.864 148.911 159.864H139.354C136.592 159.864 134.354 157.625 134.354 154.864V150.408C134.354 147.647 136.592 145.408 139.354 145.408H176.973C179.734 145.408 181.973 143.17 181.973 140.408V135.952C181.973 133.191 179.734 130.952 176.973 130.952H146.156C143.395 130.952 141.156 128.714 141.156 125.952V108.844" stroke="#0049FA" stroke-width="3" stroke-linecap="round"/>
<mask id="path-16-inside-3_1433_540" fill="white">
<path fill-rule="evenodd" clip-rule="evenodd" d="M158.163 113.935C158.163 113.929 158.169 113.924 158.175 113.924C158.453 113.938 158.732 113.946 159.014 113.946C167.937 113.946 175.17 106.712 175.17 97.7891C175.17 89.9913 169.646 83.4837 162.297 81.9666C160.926 81.6834 159.864 80.4821 159.864 79.0816C159.864 63.5839 147.301 51.0204 131.803 51.0204C129.601 51.0204 127.458 51.274 125.402 51.7537C123.934 52.0962 122.387 51.4486 121.61 50.1565C116.405 41.5032 106.923 35.7143 96.0885 35.7143C79.6515 35.7143 66.3266 49.0392 66.3266 65.4762C66.3266 66.9645 66.4359 68.4273 66.6468 69.8571C66.9145 71.6716 65.7053 73.4411 63.946 73.9599C55.4909 76.4531 49.3198 84.2746 49.3198 93.5374C49.3198 104.809 58.4569 113.946 69.728 113.946H158.153C158.159 113.946 158.163 113.941 158.163 113.935Z"/>
</mask>
<path fill-rule="evenodd" clip-rule="evenodd" d="M158.163 113.935C158.163 113.929 158.169 113.924 158.175 113.924C158.453 113.938 158.732 113.946 159.014 113.946C167.937 113.946 175.17 106.712 175.17 97.7891C175.17 89.9913 169.646 83.4837 162.297 81.9666C160.926 81.6834 159.864 80.4821 159.864 79.0816C159.864 63.5839 147.301 51.0204 131.803 51.0204C129.601 51.0204 127.458 51.274 125.402 51.7537C123.934 52.0962 122.387 51.4486 121.61 50.1565C116.405 41.5032 106.923 35.7143 96.0885 35.7143C79.6515 35.7143 66.3266 49.0392 66.3266 65.4762C66.3266 66.9645 66.4359 68.4273 66.6468 69.8571C66.9145 71.6716 65.7053 73.4411 63.946 73.9599C55.4909 76.4531 49.3198 84.2746 49.3198 93.5374C49.3198 104.809 58.4569 113.946 69.728 113.946H158.153C158.159 113.946 158.163 113.941 158.163 113.935Z" fill="url(#paint9_linear_1433_540)"/>
<path d="M162.297 81.9666L162.904 79.0285L162.297 81.9666ZM125.402 51.7537L126.084 54.6752L125.402 51.7537ZM121.61 50.1565L119.039 51.703L121.61 50.1565ZM158.175 113.924L158.021 116.92L158.175 113.924ZM159.014 110.946C158.783 110.946 158.555 110.94 158.328 110.928L158.021 116.92C158.35 116.937 158.681 116.946 159.014 116.946V110.946ZM172.17 97.7891C172.17 105.055 166.28 110.946 159.014 110.946V116.946C169.594 116.946 178.17 108.369 178.17 97.7891H172.17ZM161.691 84.9046C167.674 86.1398 172.17 91.4428 172.17 97.7891H178.17C178.17 88.5398 171.618 80.8277 162.904 79.0285L161.691 84.9046ZM131.803 54.0204C145.644 54.0204 156.864 65.2407 156.864 79.0816H162.864C162.864 61.927 148.957 48.0204 131.803 48.0204V54.0204ZM126.084 54.6752C127.918 54.2473 129.832 54.0204 131.803 54.0204V48.0204C129.37 48.0204 126.998 48.3007 124.721 48.8321L126.084 54.6752ZM96.0885 38.7143C105.827 38.7143 114.354 43.914 119.039 51.703L124.181 48.6101C118.455 39.0923 108.018 32.7143 96.0885 32.7143V38.7143ZM69.3266 65.4762C69.3266 50.696 81.3083 38.7143 96.0885 38.7143V32.7143C77.9946 32.7143 63.3266 47.3823 63.3266 65.4762H69.3266ZM69.6147 69.4192C69.4251 68.134 69.3266 66.8175 69.3266 65.4762H63.3266C63.3266 67.1115 63.4467 68.7207 63.6789 70.2949L69.6147 69.4192ZM52.3198 93.5374C52.3198 85.6406 57.5803 78.9647 64.7945 76.8374L63.0976 71.0824C53.4015 73.9415 46.3198 82.9085 46.3198 93.5374H52.3198ZM69.728 110.946C60.1137 110.946 52.3198 103.152 52.3198 93.5374H46.3198C46.3198 106.465 56.8 116.946 69.728 116.946V110.946ZM158.153 110.946H69.728V116.946H158.153V110.946ZM158.153 116.946C159.815 116.946 161.163 115.598 161.163 113.935H155.163C155.163 112.284 156.502 110.946 158.153 110.946V116.946ZM63.6789 70.2949C63.6949 70.4034 63.6744 70.559 63.5594 70.7318C63.4415 70.9087 63.2698 71.0316 63.0976 71.0824L64.7945 76.8374C67.8919 75.9241 70.1147 72.809 69.6147 69.4192L63.6789 70.2949ZM162.904 79.0285C162.898 79.0272 162.887 79.0239 162.875 79.0164C162.862 79.0086 162.852 78.9996 162.846 78.9931C162.841 78.9868 162.845 78.9892 162.851 79.0048C162.858 79.0223 162.864 79.0496 162.864 79.0816H156.864C156.864 82.0271 159.049 84.3591 161.691 84.9046L162.904 79.0285ZM124.721 48.8321C124.51 48.8812 124.282 48.7783 124.181 48.6101L119.039 51.703C120.493 54.1188 123.357 55.3113 126.084 54.6752L124.721 48.8321ZM158.328 110.928C156.608 110.84 155.163 112.211 155.163 113.935H161.163C161.163 115.647 159.729 117.008 158.021 116.92L158.328 110.928Z" fill="url(#paint10_linear_1433_540)" mask="url(#path-16-inside-3_1433_540)"/>
<defs>
<linearGradient id="paint0_linear_1433_540" x1="207" y1="137" x2="225.546" y2="204.29" gradientUnits="userSpaceOnUse">
<stop stop-color="#080816"/>
<stop offset="1" stop-color="#000044"/>
</linearGradient>
<linearGradient id="paint1_linear_1433_540" x1="217" y1="139.499" x2="227.735" y2="201.22" gradientUnits="userSpaceOnUse">
<stop stop-color="#080816"/>
<stop offset="1" stop-color="#000044"/>
</linearGradient>
<linearGradient id="paint2_linear_1433_540" x1="164.5" y1="123.999" x2="209.107" y2="230.441" gradientUnits="userSpaceOnUse">
<stop offset="0.0854211" stop-color="#080816"/>
<stop offset="1" stop-color="#004AFF"/>
</linearGradient>
<linearGradient id="paint3_linear_1433_540" x1="30.9995" y1="245" x2="80.0493" y2="213.465" gradientUnits="userSpaceOnUse">
<stop offset="0.127233" stop-color="#080816"/>
<stop offset="1" stop-color="#004AFF"/>
</linearGradient>
<linearGradient id="paint4_linear_1433_540" x1="227.213" y1="28.4245" x2="266.349" y2="84.9941" gradientUnits="userSpaceOnUse">
<stop stop-color="#080816"/>
<stop offset="1" stop-color="#000044"/>
</linearGradient>
<linearGradient id="paint5_linear_1433_540" x1="129.004" y1="26.9973" x2="141.082" y2="40.5788" gradientUnits="userSpaceOnUse">
<stop offset="0.127233" stop-color="#080816"/>
<stop offset="1" stop-color="#004AFF"/>
</linearGradient>
<linearGradient id="paint6_linear_1433_540" x1="260.196" y1="7.30027" x2="222.425" y2="41.6672" gradientUnits="userSpaceOnUse">
<stop offset="0.127233" stop-color="#080816"/>
<stop offset="0.722509" stop-color="#004AFF"/>
</linearGradient>
<linearGradient id="paint7_linear_1433_540" x1="155.323" y1="185.006" x2="110.895" y2="104.851" gradientUnits="userSpaceOnUse">
<stop stop-color="#080816"/>
<stop offset="1" stop-color="#000044"/>
</linearGradient>
<linearGradient id="paint8_linear_1433_540" x1="94.5" y1="94.9998" x2="118.603" y2="138.511" gradientUnits="userSpaceOnUse">
<stop stop-color="#080816"/>
<stop offset="0.909375" stop-color="#004AFF"/>
</linearGradient>
<linearGradient id="paint9_linear_1433_540" x1="74.5005" y1="27.9995" x2="142.5" y2="109.499" gradientUnits="userSpaceOnUse">
<stop stop-color="#080816"/>
<stop offset="1" stop-color="#000044"/>
</linearGradient>
<linearGradient id="paint10_linear_1433_540" x1="72.5005" y1="4.49945" x2="141.5" y2="113.999" gradientUnits="userSpaceOnUse">
<stop offset="0.127233" stop-color="#080816"/>
<stop offset="1" stop-color="#004AFF"/>
</linearGradient>
</defs>
</svg>
