<svg width="250" height="250" viewBox="0 0 250 250" fill="none" xmlns="http://www.w3.org/2000/svg">
<line x1="207.007" y1="219.963" x2="224.323" y2="247.935" stroke="#0049FA" stroke-width="3" stroke-linecap="round"/>
<g clip-path="url(#clip0_1433_630)">
<path d="M143.574 226.378C144.782 202.571 160.478 184.292 179.064 184.292C197.65 184.292 213.346 202.571 214.554 226.378C214.592 227.127 213.976 227.803 213.128 227.803H145C144.152 227.803 143.536 227.127 143.574 226.378Z" fill="url(#paint0_linear_1433_630)" stroke="url(#paint1_linear_1433_630)" stroke-width="3"/>
<rect x="162.396" y="146.5" width="33.3372" height="47.8721" rx="16.6686" fill="url(#paint2_linear_1433_630)" stroke="url(#paint3_linear_1433_630)" stroke-width="3"/>
</g>
<rect x="126.5" y="120.686" width="104.558" height="104.558" rx="52.2791" stroke="#0049FA" stroke-width="3"/>
<path d="M16.1092 84.2834C17.3175 60.4768 33.0134 42.1973 51.5991 42.1973C70.1848 42.1973 85.8808 60.4768 87.0891 84.2834C87.1271 85.0324 86.511 85.7089 85.6631 85.7089H17.5352C16.6872 85.7089 16.0711 85.0324 16.1092 84.2834Z" fill="url(#paint4_linear_1433_630)" stroke="url(#paint5_linear_1433_630)" stroke-width="3"/>
<rect x="34.9307" y="4.40625" width="33.3372" height="47.8721" rx="16.6686" fill="url(#paint6_linear_1433_630)" stroke="url(#paint7_linear_1433_630)" stroke-width="3"/>
<path d="M16.1092 203.586C17.3175 179.78 33.0134 161.5 51.5991 161.5C70.1848 161.5 85.8808 179.78 87.0891 203.586C87.1271 204.335 86.511 205.012 85.6631 205.012H17.5352C16.6872 205.012 16.0711 204.335 16.1092 203.586Z" fill="url(#paint8_linear_1433_630)" stroke="url(#paint9_linear_1433_630)" stroke-width="3"/>
<rect x="34.9307" y="123.709" width="33.3372" height="47.8721" rx="16.6686" fill="url(#paint10_linear_1433_630)" stroke="url(#paint11_linear_1433_630)" stroke-width="3"/>
<path d="M133.574 84.2831C134.782 60.4765 150.478 42.197 169.064 42.197C187.65 42.197 203.346 60.4765 204.554 84.2831C204.592 85.0321 203.976 85.7086 203.128 85.7086H135C134.152 85.7086 133.536 85.0321 133.574 84.2831Z" fill="url(#paint12_linear_1433_630)" stroke="url(#paint13_linear_1433_630)" stroke-width="3"/>
<rect x="152.396" y="4.40625" width="33.3372" height="47.8721" rx="16.6686" fill="url(#paint14_linear_1433_630)" stroke="url(#paint15_linear_1433_630)" stroke-width="3"/>
<defs>
<linearGradient id="paint0_linear_1433_630" x1="179.465" y1="192.594" x2="179.465" y2="224.094" gradientUnits="userSpaceOnUse">
<stop stop-color="#080816"/>
<stop offset="1" stop-color="#000044"/>
</linearGradient>
<linearGradient id="paint1_linear_1433_630" x1="179" y1="183" x2="179" y2="215" gradientUnits="userSpaceOnUse">
<stop offset="0.127233" stop-color="#080816"/>
<stop offset="1" stop-color="#004AFF"/>
</linearGradient>
<linearGradient id="paint2_linear_1433_630" x1="167" y1="159.5" x2="191" y2="189.5" gradientUnits="userSpaceOnUse">
<stop stop-color="#000044"/>
<stop offset="0.881086" stop-color="#080816"/>
</linearGradient>
<linearGradient id="paint3_linear_1433_630" x1="200.5" y1="212" x2="163.5" y2="155.5" gradientUnits="userSpaceOnUse">
<stop offset="0.126383" stop-color="#080816"/>
<stop offset="1" stop-color="#004AFF"/>
</linearGradient>
<linearGradient id="paint4_linear_1433_630" x1="52" y1="50.5" x2="52" y2="82" gradientUnits="userSpaceOnUse">
<stop stop-color="#080816"/>
<stop offset="1" stop-color="#000044"/>
</linearGradient>
<linearGradient id="paint5_linear_1433_630" x1="52" y1="49" x2="52" y2="87" gradientUnits="userSpaceOnUse">
<stop offset="0.127233" stop-color="#080816"/>
<stop offset="1" stop-color="#004AFF"/>
</linearGradient>
<linearGradient id="paint6_linear_1433_630" x1="67" y1="49" x2="43.5" y2="-2.5" gradientUnits="userSpaceOnUse">
<stop offset="0.0324495" stop-color="#000044"/>
<stop offset="1" stop-color="#080816"/>
</linearGradient>
<linearGradient id="paint7_linear_1433_630" x1="33" y1="-19.5" x2="67" y2="48" gradientUnits="userSpaceOnUse">
<stop offset="0.126383" stop-color="#080816"/>
<stop offset="1" stop-color="#004AFF"/>
</linearGradient>
<linearGradient id="paint8_linear_1433_630" x1="52" y1="169.803" x2="52" y2="201.303" gradientUnits="userSpaceOnUse">
<stop stop-color="#080816"/>
<stop offset="1" stop-color="#000044"/>
</linearGradient>
<linearGradient id="paint9_linear_1433_630" x1="52" y1="164" x2="52" y2="206.303" gradientUnits="userSpaceOnUse">
<stop offset="0.127233" stop-color="#080816"/>
<stop offset="1" stop-color="#004AFF"/>
</linearGradient>
<linearGradient id="paint10_linear_1433_630" x1="61" y1="137" x2="30" y2="171.5" gradientUnits="userSpaceOnUse">
<stop stop-color="#000044"/>
<stop offset="0.881086" stop-color="#080816"/>
</linearGradient>
<linearGradient id="paint11_linear_1433_630" x1="12.5" y1="185" x2="66" y2="132.5" gradientUnits="userSpaceOnUse">
<stop offset="0.126383" stop-color="#080816"/>
<stop offset="1" stop-color="#004AFF"/>
</linearGradient>
<linearGradient id="paint12_linear_1433_630" x1="169.465" y1="50.4997" x2="169.465" y2="81.9997" gradientUnits="userSpaceOnUse">
<stop stop-color="#080816"/>
<stop offset="1" stop-color="#000044"/>
</linearGradient>
<linearGradient id="paint13_linear_1433_630" x1="169.465" y1="48.9997" x2="169.465" y2="86.9997" gradientUnits="userSpaceOnUse">
<stop offset="0.127233" stop-color="#080816"/>
<stop offset="1" stop-color="#004AFF"/>
</linearGradient>
<linearGradient id="paint14_linear_1433_630" x1="187" y1="-2" x2="160" y2="45" gradientUnits="userSpaceOnUse">
<stop stop-color="#080816"/>
<stop offset="1" stop-color="#000044"/>
</linearGradient>
<linearGradient id="paint15_linear_1433_630" x1="193" y1="-17" x2="151" y2="49" gradientUnits="userSpaceOnUse">
<stop offset="0.126383" stop-color="#080816"/>
<stop offset="1" stop-color="#004AFF"/>
</linearGradient>
<clipPath id="clip0_1433_630">
<rect x="125" y="119.186" width="107.558" height="107.558" rx="53.7791" fill="white"/>
</clipPath>
</defs>
</svg>
